<svg xmlns="http://www.w3.org/2000/svg" width="48" height="24" viewBox="0 0 48 24">
  <g fill="none" fill-rule="evenodd">
    <path fill="#02CCBA" d="M47.7252672,22.8666667 L35.9416458,1.13333333 C35.6161314,0.533333333 34.8999997,0.0666666667 34.2489709,0 L34.0536622,0 L34.0536622,0 L14.522798,0 L14.522798,0 L14.3274894,0 C13.6764606,0.0666666667 12.895226,0.533333333 12.6348145,1.13333333 L0.72098734,22.8666667 C0.395472937,23.5333333 0.65588446,24 1.37201615,24 L20.9028803,24 C21.619012,24 22.4653495,23.4666667 22.8559668,22.8666667 L24.1580244,20.4666667 L25.460082,22.8666667 C25.7855964,23.5333333 26.6970367,24 27.4131684,24 L46.9440326,24 C47.7252672,24 48.0507816,23.4666667 47.7252672,22.8666667 L47.7252672,22.8666667 L47.7252672,22.8666667 Z M31.9703701,2 L24.2231273,16.2666667 L16.4758845,2 L31.9703701,2 L31.9703701,2 L31.9703701,2 Z M21.2283947,21.8666667 C21.1632919,21.9333333 21.0330861,22 20.9679832,22 L3.45530833,22 L14.1972836,2.13333333 L14.2623865,2.06666667 L23.1163783,18.3333333 L21.2283947,21.8666667 L21.2283947,21.8666667 L21.2283947,21.8666667 Z M27.4782713,22 C27.4131684,22 27.2829626,21.8666667 27.2178598,21.8666667 L25.3298762,18.4 L34.183868,2.13333333 L34.2489709,2.2 L44.9909462,22 L27.4782713,22 L27.4782713,22 L27.4782713,22 Z"/>
    <g transform="translate(36 7)">
      <rect width="12" height="12" fill="#FFFFFF"/>
      <path stroke="#02CCBA" stroke-width="2" d="M6 1L6 9M10 5L2.01387819 5" stroke-linecap="round"/>
    </g>
  </g>
</svg>
