<svg xmlns="http://www.w3.org/2000/svg" width="99" height="72" viewBox="0 0 99 72" xmlns:xlink="http://www.w3.org/1999/xlink">
  <defs>
    <path id="a" d="M.02.157h98.976V29.98H.02"/>
    <path id="c" d="M.02.157h98.976V29.98H.02z"/>
  </defs>
  <g fill="none" fill-rule="evenodd">
    <g transform="translate(0 31)">
      <mask id="b" fill="#fff">
        <use xlink:href="#a"/>
      </mask>
      <path fill="#EC912D" d="M61.416 23.496C55.664 27.742 47.326 30 40.144 30c-10.063 0-19.126-3.72-25.984-9.916-.538-.486-.058-1.15.59-.774 7.398 4.307 16.548 6.9 26 6.9 6.374 0 13.382-1.322 19.83-4.06.972-.41 1.788.642.836 1.346" mask="url(#b)"/>
    </g>
    <path fill="#EC912D" d="M63.81 51.762c-.736-.942-4.863-.446-6.718-.224-.56.067-.648-.424-.142-.78 3.293-2.313 8.687-1.645 9.314-.87.632.78-.166 6.192-3.25 8.774-.476.397-.927.185-.717-.34.695-1.734 2.25-5.617 1.513-6.56"/>
    <path fill="#0A0A08" d="M57.223 34.417V32.17c.002-.344.26-.57.57-.57h10.07c.323 0 .582.233.582.566v1.928c-.003.323-.276.745-.758 1.415l-5.217 7.45c1.936-.05 3.984.24 5.744 1.23.397.22.503.55.534.87v2.4c0 .33-.362.71-.742.51-3.1-1.63-7.213-1.8-10.64.02-.35.18-.717-.19-.717-.52V45.2c0-.366 0-.99.37-1.545l6.04-8.675H57.8c-.32 0-.58-.23-.58-.566m-36.736 14.04H17.42c-.29-.02-.524-.24-.547-.52l.002-15.73c0-.315.264-.566.59-.566h2.855c.3.016.54.24.558.53v2.053h.058c.744-1.98 2.145-2.91 4.032-2.91 1.917 0 3.118.93 3.976 2.91.744-1.98 2.43-2.91 4.233-2.91 1.287 0 2.69.53 3.547 1.72.972 1.33.772 3.24.772 4.93l-.003 9.93c0 .32-.264.57-.59.57h-3.06c-.31-.02-.55-.26-.55-.56v-8.34c0-.66.056-2.31-.088-2.94-.228-1.06-.914-1.35-1.8-1.35-.745 0-1.517.5-1.832 1.29-.314.8-.286 2.12-.286 3.018v8.34c0 .316-.264.568-.59.568h-3.06c-.31-.02-.55-.26-.55-.562l-.004-8.34c0-1.752.286-4.333-1.887-4.333-2.203 0-2.117 2.515-2.117 4.335v8.34c0 .314-.27.566-.6.566m56.65-13.94c-2.26 0-2.4 3.078-2.4 4.998s-.03 6.026 2.37 6.026c2.37 0 2.49-3.31 2.49-5.33 0-1.32-.06-2.91-.46-4.17-.35-1.09-1.03-1.52-2-1.52zm-.03-3.21c4.54 0 7 3.906 7 8.87 0 4.8-2.72 8.608-7.01 8.608-4.47 0-6.9-3.906-6.9-8.772 0-4.9 2.46-8.703 6.894-8.703zM90 48.477h-3.05c-.308-.02-.55-.264-.55-.566l-.006-15.73c.027-.29.28-.52.59-.52h2.84c.27.013.49.196.546.44v2.4h.06c.86-2.153 2.06-3.18 4.18-3.18 1.37 0 2.715.496 3.573 1.854.8 1.258.8 3.376.8 4.9v9.898c-.03.28-.28.497-.585.497h-3.07c-.285-.02-.514-.23-.547-.5v-8.54c0-1.72.2-4.24-1.91-4.24-.74 0-1.43.493-1.77 1.254-.43.96-.483 1.92-.483 2.98v8.47c-.005.315-.27.567-.596.567"/>
    <g transform="translate(0 31)">
      <mask id="d" fill="#fff">
        <use xlink:href="#c"/>
      </mask>
      <path fill="#0A0A08" d="M52.283 17.417c-.202.182-.495.194-.723.07-1.018-.845-1.2-1.236-1.757-2.04-1.682 1.712-2.872 2.227-5.05 2.227-2.58 0-4.587-1.593-4.587-4.777 0-2.49 1.347-4.18 3.267-5.01 1.662-.73 3.984-.862 5.762-1.062v-.398c0-.73.057-1.592-.373-2.222-.373-.565-1.09-.797-1.72-.797-1.17 0-2.207.6-2.463 1.84-.06.277-.26.55-.54.565l-2.97-.322c-.25-.05-.53-.25-.46-.64.68-3.6 3.94-4.69 6.85-4.69 1.49 0 3.44.4 4.61 1.53 1.49 1.4 1.34 3.25 1.34 5.28v4.78c0 1.44.59 2.07 1.15 2.84.19.28.24.61-.01.82-.63.53-1.74 1.49-2.35 2.04h-.01zm-3.088-7.473c0 1.195.028 2.19-.574 3.25-.48.863-1.26 1.395-2.12 1.395-1.17 0-1.86-.9-1.86-2.23 0-2.61 2.34-3.09 4.56-3.09v.66zm-37.078 7.473c-.202.182-.495.194-.723.07-1.018-.845-1.2-1.236-1.756-2.04-1.683 1.712-2.874 2.227-5.052 2.227C2.006 17.674 0 16.08 0 12.897c0-2.49 1.347-4.18 3.267-5.01 1.662-.73 3.985-.862 5.76-1.062v-.398c0-.73.06-1.592-.37-2.222-.374-.565-1.09-.797-1.72-.797-1.17 0-2.21.6-2.463 1.84-.053.277-.255.55-.533.565L.98 5.49c-.25-.056-.53-.257-.458-.64C1.197 1.244 4.45.156 7.367.156c1.49 0 3.44.398 4.613 1.526 1.49 1.393 1.35 3.252 1.35 5.276v4.773c0 1.44.6 2.07 1.16 2.84.194.28.24.61-.01.82-.626.53-1.74 1.49-2.35 2.04h-.008zm-3.09-7.473c0 1.195.03 2.19-.572 3.25-.487.863-1.26 1.395-2.12 1.395-1.175 0-1.864-.9-1.864-2.23 0-2.61 2.35-3.09 4.56-3.09v.66z" mask="url(#d)"/>
    </g>
  </g>
</svg>
