<svg xmlns="http://www.w3.org/2000/svg" width="43" height="72" viewBox="0 0 43 72">
  <path fill="#FF00BF" fill-rule="evenodd" d="M.044 26.49h6.52v17.195c0 2.727 1.257 4.346 2.275 5.028-1.064.916-4.29 1.726-6.717-.234-1.43-1.153-2.08-3.07-2.08-4.86V26.49zm40.703 12.486h1.993v-6.328h-2.188C39.707 28.834 36.262 26 32.147 26c-4.744 0-8.6 3.793-8.6 8.46v14.764c1.344.192 2.968-.02 4.333-1.15 1.43-1.15 2.08-3.068 2.08-4.858v-.554h3.25v-6.328h-3.25v-1.918c0-1.193.974-2.152 2.187-2.152 1.213 0 2.188.96 2.188 2.152v6.35c0 4.666 3.856 8.458 8.6 8.458v-6.306c-1.213 0-2.188-.96-2.188-2.13v-1.812zm-24.65-6.35v9.31c0 .534-.456.96-.998.96s-.998-.426-.998-.958v-9.312H7.67v10.93c0 1.96.67 4.454 3.768 5.264 3.098.81 4.874-.874 4.874-.874-.173 1.108-1.213 1.918-2.924 2.088-1.3.128-2.946-.298-3.77-.64v5.796c2.102.618 4.312.81 6.5.384 3.942-.746 6.433-3.985 6.433-8.31v-14.68h-6.453v.042z"/>
</svg>
