<svg xmlns="http://www.w3.org/2000/svg" width="146" height="72" viewBox="0 0 146 72" xmlns:xlink="http://www.w3.org/1999/xlink">
  <defs>
    <linearGradient id="a" x1="49.999%" x2="49.999%" y1="0%" y2="100%">
      <stop stop-color="#F7E830" offset="0%"/>
      <stop stop-color="#FDCB06" offset="100%"/>
    </linearGradient>
    <radialGradient id="b" cx="49.578%" cy="353.571%" r="67.236%" fx="49.578%" fy="353.571%">
      <stop stop-color="#F29405" offset="59.62%"/>
      <stop stop-color="#F7D01E" offset="73.62%"/>
      <stop stop-color="#FDCB06" offset="100%"/>
    </radialGradient>
    <linearGradient id="c" x1="49.785%" x2="50.593%" y1="-.021%" y2="98.032%">
      <stop stop-color="#FADA1C" offset="0%"/>
      <stop stop-color="#FDCB06" offset="100%"/>
    </linearGradient>
    <linearGradient id="d" x1="50.204%" x2="49.4%" y1="-.031%" y2="98.021%">
      <stop stop-color="#FADA1C" offset="0%"/>
      <stop stop-color="#FDCB06" offset="100%"/>
    </linearGradient>
    <path id="e" d="M17.802.9c-.043-.084-.05-.183-.05-.277L17.71.63c-.065-.244-.267-.476-.527-.487-.196-.016-.44-.01-.555.177-.217.298-.114.678-.125 1.015 0 .022.006.06.006.082 0 .227-.03.447-.07.668-.03.066-.05.138-.05.215-.1.518-.28 1.03-.53 1.5-.05.066-.09.138-.11.215-.17.287-.36.552-.56.817-.03.027-.06.06-.09.093-.14.177-.3.326-.45.48-.04.022-.07.05-.1.072-.19.182-.39.353-.62.49-.03.018-.05.04-.09.062-1.4.93-3.09 1.31-4.73 1.33-1.39.04-2.8-.26-4.06-.87l-.1-.05c-.22-.12-.43-.22-.63-.36-.05-.02-.09-.05-.14-.07-.2-.13-.39-.26-.57-.41-.06-.06-.12-.1-.19-.15-.19-.16-.39-.33-.56-.53-.04-.05-.09-.1-.13-.14-.59-.63-1.05-1.39-1.3-2.22C1.2 1.9 1.23 1.19 1.2.5 1.03.22.62.05.29.23.16.34.142.52.04.65c-.17 1.82.597 3.632 1.82 4.945 0 .045.02.07.06.09.217.21.43.42.646.62.038.04.082.077.13.11.218.18.452.35.68.52.044.03.087.06.136.087.3.177.582.386.903.51.02.014.06.042.08.053 1.034.5 2.148.845 3.29.955.125 0 .25.01.375.04.543.033 1.087.016 1.63.005 1.68-.15 3.414-.56 4.817-1.56l.016.02c.044-.04.082-.07.125-.1.223-.163.44-.34.658-.52.05-.04.103-.08.152-.13.24-.266.516-.51.718-.81l.032.014.06-.11c.185-.26.354-.52.517-.79.01-.02.038-.04.048-.06l-.02-.02.07-.09c.298-.62.565-1.27.657-1.95.038-.02.06-.05.06-.09.005-.22.08-.43.06-.65.047-.27.053-.55.042-.83z"/>
  </defs>
  <g fill="none" fill-rule="evenodd">
    <path fill="url(#a)" stroke="#FCD109" stroke-width=".5" d="M145.922 6.848c-.016-.055-.033-.11-.054-.165-12.878.005-25.75 0-38.622.005-.032.04-.054.077-.06.127 0 10.132 0 20.258-.005 30.39.09.54.38 1.03.77 1.4.02.006.06.012.07.017.2.215.49.32.76.42.2-.01.4.077.6.055h15.98c.16-.006.31.022.46-.04l.02-.082c.01-.027.02-.088.02-.12.34-1.942.68-3.89 1.04-5.83l.03-.25c-1.48-.004-2.96 0-4.44-.004-.36-.01-.73 0-1.09-.04-.61-.02-1.23 0-1.84-.06-.76 0-1.51-.07-2.28-.07-.59-.06-1.2-.04-1.8-.06-.39-.05-.79-.02-1.19-.04-.64-.07-1.3-.02-1.95-.09-.68.01-1.37-.05-2.05-.07.01 0 .01-.03.01-.03.23.01.45-.01.68-.01.51-.06 1.02-.02 1.52-.09.53 0 1.05-.07 1.58-.07.47-.07.94-.03 1.41-.09.55 0 1.09-.08 1.64-.08.45-.06.91-.03 1.36-.09.53.01 1.05-.08 1.58-.07.52-.06 1.05-.05 1.56-.1-.05-.2-.08-.41-.13-.61-.03-.13-.19-.1-.28-.12l-3.53-.51c.07-.06.18-.03.26-.04.92-.07 1.83-.16 2.74-.22.21-.01.41-.05.61-.06-.09-.28-.15-.6-.27-.86-1.95-.3-3.9-.57-5.85-.9.51-.08 1.02-.12 1.53-.17l.05-.01c1.62-.17 3.24-.36 4.85-.52 2.05-.01 4.09-.01 6.14 0 .07-.01.18.02.19-.07.17-.89.34-1.79.5-2.68.24-1.24.61-2.47 1.18-3.6.9-1.82 2.32-3.36 4.05-4.39 1.614-.96 3.484-1.42 5.34-1.51.608-.05 1.216-.04 1.81.04.396.1.798.21 1.108.48.253.21.406.52.52.83.25.73.39 1.495.51 2.26.003.31.06.655-.106.936-.15.27-.45.4-.74.49-1.05.27-2.144.01-3.194.27-.86.186-1.66.67-2.21 1.37-.645.816-.99 1.83-1.18 2.846-.145.91-.33 1.81-.48 2.72 1.04.01 2.07 0 3.11.01.416 0 .84.23 1.01.63.216.51.17 1.08.096 1.614-.083.6-.224 1.196-.49 1.75-.224.47-.594.9-1.1 1.062-.26.1-.543.08-.82.08-.913 0-1.83.01-2.74 0-.15.68-.244 1.37-.375 2.06-.24 1.34-.473 2.69-.71 4.033-.007.044-.01.14-.01.187.43.02.86 0 1.29.01 3.18 0 6.37-.007 9.563 0 .34.01.69-.07.99-.24.173-.07.28-.23.44-.32.15-.09.19-.27.323-.384.14-.25.287-.52.3-.82.014 0 .06-.01.08-.01-.017-10.15 0-20.3-.01-30.45z" transform="translate(0 16)"/>
    <path fill="#F8F3B5" stroke="#F8F3B5" stroke-width=".5" d="M112.253 16.174c.46-.15.945-.05 1.418-.083 8.88.01 17.76 0 26.63 0 .53-.02.99.29 1.48.44.39.16.8.29 1.19.46.09.04.15.11.2.17v2.2c.01.2-.02.39.04.58.12.02.18.11.25.18.36.17.67.44.99.66.49.36 1.01.66 1.49 1.03.02.15.01.29-.04.43-.05.16-.01.32-.03.48-12.88.01-25.75 0-38.62.01-.02-.18.02-.36-.05-.53-.01-.14-.06-.33.08-.43.55-.38 1.12-.73 1.65-1.14.34-.21.66-.43.98-.65.07-.11.05-.25.05-.37 0-.8 0-1.6.01-2.4.19-.24.51-.27.76-.39.52-.2 1.04-.39 1.55-.59zm.032.094c-.696.27-1.397.53-2.093.8-.092.016-.14.1-.19.17.005.045.01.122.01.166-.005.662 0 1.324-.005 1.986.006.165-.016.33.044.48-.07.07-.14.143-.23.198-.79.52-1.55 1.08-2.33 1.594-.13.083-.29.193-.24.375-.02.1.02.182.13.155 1.71-.01 3.41.01 5.12-.017 2.54 0 5.07.005 7.61 0l.04-.017c.12.028.23.017.35.017 4.6 0 9.2.005 13.81 0 1.45.005 2.9 0 4.35 0 2.4 0 4.79.022 7.18.01.07-.016.1-.065.07-.153 0-.09.03-.21-.06-.265-.38-.182-.7-.463-1.07-.684-.13-.11-.3-.17-.39-.32-.37-.215-.72-.48-1.09-.717-.07-.044-.12-.116-.18-.176.04-.116.05-.243.05-.364v-2.102c.02-.11.01-.237-.09-.31-.65-.236-1.3-.49-1.95-.732-.2-.1-.42-.155-.64-.188H112.7c-.12.006-.23.067-.35.094z"/>
    <path fill="#F39F00" d="M110.013 17.404c.478.204.99.32 1.473.52.26.104.343.39.457.622-.114.116-.25.21-.386.298-.5.342-1.01.673-1.506 1.026-.06-.15-.03-.315-.04-.48.01-.662 0-1.324.01-1.986zm31.61.52c.483-.194.99-.327 1.472-.52.006.7 0 1.4.006 2.102 0 .12-.01.248-.04.364-.42-.298-.85-.58-1.27-.872-.2-.154-.43-.27-.62-.458.12-.23.2-.512.47-.617z"/>
    <path fill="#AF8C0F" d="M118.308 18.15c.598-.145 1.267.396 1.218 1.03.005.623-.642 1.13-1.234.987-.24-.082-.468-.21-.615-.424-.19-.293-.233-.684-.08-1.004.108-.31.4-.52.71-.59zm15.508.346c.25-.28.647-.44 1.017-.342.277.083.55.265.67.54.238.475.053 1.115-.415 1.363-.413.232-.934.12-1.25-.215-.32-.37-.342-.976-.022-1.346z"/>
    <path fill="#F7E62D" stroke="#F7E62D" stroke-width=".5" d="M111.557 18.844c.136-.09.272-.182.386-.298l.038.038c.04.287.02.58.03.866-.01.86.02 1.727-.02 2.587-1.58 0-3.16-.01-4.74 0-.04-.182.11-.292.25-.375.79-.513 1.55-1.075 2.34-1.594.09-.055.17-.127.24-.198.5-.353 1.01-.684 1.51-1.026zm29.55-.11c0-.072.015-.133.053-.194.185.188.413.304.62.458.424.292.853.574 1.277.872.06.06.114.132.185.176.37.237.717.502 1.093.717.097.15.266.21.396.32.37.22.7.502 1.08.684.09.055.06.176.07.265-1.58.005-3.16-.006-4.74.005-.02-.22-.01-.44-.01-.656 0-.88-.01-1.76 0-2.64z"/>
    <path fill="url(#b)" stroke="#FCD109" stroke-width=".5" d="M145.868 6.032c-1.582.005-3.16-.006-4.74.005-.028-.22-.01-.44-.017-.656 0-.88-.01-1.76 0-2.64 0-.07.02-.13.06-.19.12-.23.2-.51.47-.61.49-.19.99-.32 1.48-.52.02-.11.01-.23-.08-.31-.65-.23-1.3-.49-1.94-.73-.2-.1-.42-.15-.64-.18h-27.79c-.12.01-.23.07-.35.09-.69.27-1.39.53-2.09.8-.09.02-.14.1-.19.17.01.05.01.12.01.17.48.21.99.32 1.48.52.26.11.34.39.46.62l.04.04c.04.29.01.58.02.87-.01.86.02 1.73-.02 2.59-1.58 0-3.16-.01-4.74 0-.02.1.03.19.13.16 1.71-.01 3.41.01 5.12-.01 2.54 0 5.08.01 7.61 0l.04-.01c.12.03.23.02.35.02 4.6 0 9.2.01 13.8 0 1.45.01 2.9 0 4.35 0 2.39 0 4.79.02 7.18.01.07-.01.09-.06.07-.15zM117.596 2.74c.11-.31.402-.52.712-.59.598-.145 1.267.396 1.218 1.03.005.623-.642 1.13-1.234.987-.24-.082-.468-.21-.615-.424-.19-.293-.233-.684-.08-1.004zm16.22-.244c.25-.28.647-.44 1.017-.342.277.083.55.265.67.54.238.475.053 1.115-.415 1.363-.413.232-.934.12-1.25-.215-.32-.37-.342-.976-.022-1.346z" transform="translate(0 16)"/>
    <path fill="url(#c)" stroke="#FCD109" stroke-width=".5" d="M135.202 8.455c.076.017-.396-.46-.304-.482.087.01.417-.25.816-.037.398.212.3.708.254.892-.054.22-.19.36-.3.47-.06.05-.194.126-.275.12.05-.27-.11-.314-.12-.59l-.07-.373z" transform="translate(0 16)"/>
    <path fill="url(#d)" stroke="#FCD109" stroke-width=".5" d="M117.825 8.755c-.01.275-.17.32-.12.59-.08.005-.215-.072-.275-.122-.11-.11-.246-.25-.3-.468-.045-.184-.144-.68.255-.892.398-.212.728.048.815.037.092.022-.38.5-.304.482l-.07.373z" transform="translate(0 16)"/>
    <path fill="#BDA727" stroke="#BDA727" stroke-width=".5" d="M134.49 27.99c.082-.073.136-.073.245-.073-.652 1.434-1.413 2.868-2.558 3.984-.12.11-.25.22-.386.31-.13.1-.26.19-.38.28-.12.09-.25.18-.37.27-.31.17-.58.41-.92.52-.62.31-1.3.51-1.98.65-.26.05-.53.11-.81.12-.33.1-.69.03-1.03.05-.19.04-.36-.08-.54-.05-.16-.02-.32-.05-.48-.08-.16-.03-.32-.07-.48-.11-2.49-.79-4.94-2.72-5.65-5.33-.03-.17-.05-.35-.05-.53.08.16.16.31.24.46 1.01 2.25 3.03 4.01 5.4 4.54.19.09.4.06.59.14.17 0 .33 0 .5.05.56.01 1.12.01 1.68.01.08.01.15-.03.23-.05.93-.03 1.85-.29 2.7-.68.17-.08.34-.16.5-.25.15-.08.29-.16.43-.25s.27-.18.39-.28c1.01-.81 1.88-1.86 2.47-3.06.11-.21.22-.41.31-.59z"/>
    <path fill="#0D69B3" stroke="#0D69B3" stroke-width=".5" d="M133.604 32.892c1.615-.96 3.485-1.423 5.344-1.512.603-.055 1.212-.038 1.81.04.39.093.794.203 1.104.473-.158.01-.31-.06-.468-.082-.446-.08-.908-.05-1.36-.06-1.31 0-2.63.11-3.897.47-.663.21-1.326.44-1.93.8-1.043.59-1.983 1.36-2.744 2.29-1.36 1.59-2.158 3.59-2.544 5.64-.19 1.1-.4 2.19-.57 3.3-.27.03-.55.01-.82.01-1.2 0-2.39-.01-3.59-.02-.26.01-.51-.05-.76-.03-2.18.01-4.35 0-6.53 0l.04-.01c1.61-.17 3.23-.36 4.85-.52 2.05-.01 4.09 0 6.14 0 .06-.01.18.02.19-.07.17-.89.33-1.79.5-2.68.23-1.24.6-2.46 1.17-3.59.89-1.82 2.31-3.36 4.04-4.39z"/>
    <path fill="#107BD4" stroke="#107BD4" stroke-width=".5" d="M136.137 32.213c1.267-.364 2.588-.47 3.898-.47.45.012.913-.02 1.36.067.157.023.31.094.467.083.255.21.407.52.52.828.252.74.393 1.5.512 2.27.006.31.06.66-.103.94-.15.28-.45.41-.74.49-1.05.28-2.14.02-3.19.28-.86.19-1.67.68-2.21 1.38-.64.82-.99 1.83-1.18 2.85-.14.91-.33 1.81-.48 2.72-.06.21-.1.43-.14.64 1.03.02 2.06 0 3.08.01.39-.01.79.01 1.18-.01.22.51.17 1.08.1 1.62-.08.6-.23 1.2-.49 1.75-.22.47-.59.9-1.1 1.07-.26.11-.54.08-.82.08-.91 0-1.82.01-2.74 0-.14.68-.24 1.38-.37 2.07-.24 1.34-.47 2.69-.71 4.04 0 .05-.01.14-.01.19v.01c-2.37 0-4.74.01-7.12 0l.02-.08.02-.12.02.17c.15.01.42.09.45-.13.37-2.03.72-4.07 1.1-6.1-.15-.03-.3-.03-.45-.01-.02.08-.04.16-.07.24l.03-.25c-1.48-.01-2.96 0-4.44-.01-.36-.01-.73 0-1.09-.04-.61-.03-1.23-.004-1.85-.065-.76 0-1.52-.08-2.28-.08-.6-.06-1.2-.04-1.8-.063-.39-.05-.79-.03-1.19-.05-.65-.07-1.3-.02-1.95-.092-.69.006-1.37-.055-2.06-.07.01-.004.01-.026.01-.03.23.003.45-.014.68-.02.51-.064 1.02-.02 1.52-.09.53 0 1.05-.08 1.58-.08.47-.07.94-.03 1.41-.096.55 0 1.09-.07 1.64-.07.45-.06.91-.03 1.36-.09.53.005 1.05-.08 1.58-.07.52-.06 1.05-.05 1.56-.1-.05-.21-.09-.41-.13-.61-.04-.13-.19-.1-.29-.12-1.18-.17-2.35-.346-3.52-.51.07-.06.18-.03.26-.046.91-.07 1.82-.15 2.738-.22.203-.01.404-.05.61-.05-.09-.284-.147-.6-.27-.863-1.954-.3-3.905-.57-5.85-.9.504-.08 1.015-.12 1.52-.176 2.174 0 4.35.02 6.523.01.25-.016.5.05.76.034 1.19.01 2.39.02 3.58.02.278 0 .55.02.82-.01.17-1.1.388-2.196.57-3.29.388-2.048 1.187-4.056 2.54-5.64.76-.93 1.7-1.7 2.75-2.28.6-.35 1.26-.59 1.93-.8z"/>
    <path fill="#0D69B3" stroke="#0D69B3" stroke-width=".5" d="M134.974 43.625c1.033.005 2.07-.006 3.11.005.413 0 .837.232 1.005.63-.4.026-.79.005-1.18.015-1.03-.01-2.06.006-3.08-.01.04-.216.07-.436.14-.64zm-8.018 5.168c.153-.028.305-.028.452.005-.38 2.03-.723 4.07-1.093 6.1-.038.215-.304.138-.45.122-.007-.04-.012-.122-.018-.166.343-1.94.674-3.888 1.04-5.83.026-.077.048-.154.07-.23z"/>
    <path fill="#FFF" stroke="#FFF" stroke-width=".5" d="M135.45 24.61c-.044-.083-.05-.182-.05-.276l-.043.006c-.065-.243-.266-.475-.527-.486-.195-.016-.44-.01-.554.177-.218.3-.114.68-.125 1.02 0 .02.01.06.01.08 0 .23-.02.45-.06.67-.03.07-.05.14-.05.22-.09.52-.27 1.03-.52 1.5-.05.07-.08.14-.1.22-.16.29-.36.55-.56.82-.03.03-.06.06-.09.1-.14.18-.29.33-.45.48-.04.02-.06.05-.1.07-.18.18-.39.36-.61.49-.03.02-.05.04-.08.06-1.39.93-3.08 1.32-4.73 1.34-1.4.05-2.8-.26-4.07-.87-.02-.01-.07-.03-.1-.04-.21-.11-.43-.21-.62-.36-.04-.02-.09-.05-.14-.07-.2-.12-.39-.25-.57-.41-.06-.05-.12-.1-.19-.15-.19-.16-.39-.33-.56-.52-.04-.05-.08-.09-.13-.14-.59-.62-1.05-1.38-1.3-2.21-.23-.66-.2-1.37-.23-2.06-.19-.3-.61-.47-.93-.28-.13.1-.15.28-.25.41-.17 1.82.6 3.64 1.82 4.95 0 .05.02.07.06.09.22.21.43.42.65.61.04.04.08.08.13.11.22.19.45.35.68.52.04.04.09.06.14.09.3.18.58.39.9.51l.08.06c1.03.5 2.15.85 3.29.96.13 0 .25.01.38.04.54.04 1.09.02 1.63.01 1.68-.15 3.42-.56 4.82-1.56l.02.03.13-.1c.23-.163.44-.34.66-.52.05-.04.1-.084.15-.134.24-.27.52-.51.72-.81l.04.01.06-.11c.18-.256.35-.52.514-.785.01-.02.04-.043.05-.06l-.027-.02c.02-.02.058-.067.07-.09.3-.62.57-1.266.66-1.95.04-.02.06-.05.06-.09.01-.22.08-.43.06-.65.05-.27.058-.546.047-.82z"/>
    <g transform="translate(117.648 23.71)">
      <mask id="f" fill="#fff">
        <use xlink:href="#e"/>
      </mask>
      <path stroke="#D1D1D1" stroke-width="1.201" d="M-.38.713C.06.853 1.073.5 1.36.823m-1.486 1.25c.422-.15 1.328-.502 1.703-.294M.31 3.43c.203.067.605-.297.805-.404.298-.16.603-.28.933-.333M.96 4.867c.212-.303.464-.555.768-.77.3-.214 1.126-.785 1.48-.59m-1.63 2.39c.24-.193.335-.533.586-.736.304-.24.77-.28 1.08-.44M2.6 6.66c.072-.533.606-1.177 1.115-1.13M3.39 7.405c.268-.027.496-.64.678-.846.273-.31.555-.41.916-.52m-.037 2.02c-.017-.39.376-1.5.834-1.44m.33 1.8c-.02-.46.22-1.83.76-1.88m.44 2.61c-.1-.64-.09-1.56.4-2.03M8.8 9.3c-.05-.53-.572-1.605 0-2.02m1.6 1.656c-.25-.293-.393-1.447-.29-1.766m1.81 1.51c-.19-.355-.43-.686-.5-1.096-.044-.246.032-.595-.006-.78m1.777 1.322c-.41-.276-.53-1.29-.4-1.728m1.63 1.174c-.29-.643-.61-1.142-.61-1.875m1.81.7c-.46-.315-1.04-.885-.98-1.508m2.25.51c-.7-.16-1.53-.79-1.96-1.36m2.54.14c-.5-.11-2.17-.77-2.06-1.44m2.6.15c-.7-.27-1.72-.5-2.28-1m2.65-.19c-.44.04-1.08-.18-1.53-.26-.49-.09-.96-.26-1.44-.37m2.51-.5c-.85.05-1.65-.24-2.42-.51" mask="url(#f)"/>
    </g>
    <path fill="#107BD4" d="M26.474 26.965c.788-.12 1.694-.196 2.363.302.416.316.565.89.535 1.402.03.84-.357 1.74-1.1 2.18-.654.36-1.44.39-2.17.31-.49-.06-.98-.33-1.233-.79-.57-1.31.13-3.17 1.6-3.43zm-23.572.95c.045-.452.446-.86.907-.844 3.43 0 6.85.02 10.27 0 .37-.03.77.14.95.47.25.46.03.95 0 1.42-.11.64-.08 1.48-.81 1.72-2.5.08-5 0-7.49.03-.24 1.6-.46 3.18-.7 4.77 0 .06.01.2.01.26 1.83-.01 3.65 0 5.48-.01.5-.03 1.04.41.99.95-.05.56-.16 1.1-.24 1.66-.06.38-.36.73-.74.8-2.04.05-4.1-.04-6.14.05-.33 2.28-.72 4.55-1.06 6.83-.04.45-.4.85-.85.86-.85.02-1.69.02-2.54 0-.55.02-1-.6-.85-1.13.9-5.94 1.84-11.87 2.78-17.81zm15.1-.815c.773-.06 1.56-.014 2.334-.03.475-.03.95.348.995.845 0 .392-.1.784-.14 1.177-.62 4.04-1.26 8.082-1.89 12.124-.09.648-.25 1.342-.06 2.005.23.67 1.22.38 1.46 1.08.15.56-.01 1.15-.06 1.72-.04.76-.89.92-1.47 1.09-1.26.24-2.79.06-3.7-.99-.65-.77-.69-1.85-.56-2.82.79-5.12 1.58-10.25 2.38-15.39.05-.37.34-.72.73-.78zm29.502.815c.044-.452.446-.844.89-.844h2.26c.565-.01 1.026.61.892 1.15-.52 3.35-1.055 6.7-1.575 10.05.79-.12 1.68-.27 2.23-.92.92-1.05 1.68-2.27 2.25-3.55.2-.5.3-1.22.94-1.31.85-.03 1.71-.01 2.56 0 .58-.01 1.01.65.82 1.19-.22.8-.59 1.54-.98 2.25-.86 1.42-1.81 2.82-3.06 3.94.55 1.68 1.25 3.31 1.86 4.95.18.55.61 1.18.21 1.71-.46.64-1.32.32-1.96.39-.67-.07-1.63.27-2-.5-.7-1.64-1.28-3.33-1.99-4.97-.41.02-.85.03-1.26-.01l-.12.24c-.22 1.51-.46 3.02-.7 4.53-.09.36-.37.68-.76.71-.79.03-1.59.01-2.39.01-.34 0-.65-.23-.8-.53-.15-.3-.06-.65-.01-.98.92-5.82 1.83-11.64 2.74-17.46zm41.302 1.645c.104-.423.505-.71.92-.695.596.015 1.205-.015 1.814.015.49.015.877.513.818.995-.09.86-.298 1.72-.357 2.58.58 0 1.18-.016 1.76 0 .52 0 .95.542.86 1.055-.07.467-.18.92-.25 1.387-.07.392-.4.71-.77.77-.71.044-1.41-.03-2.11.044-.29 2.03-.62 4.05-.93 6.07-.04.47-.07 1 .2 1.41.4.5 1.1.32 1.67.38.45.14.73.64.66 1.09-.07.51-.09 1.03-.21 1.53-.18.56-.82.67-1.31.8-1.35.36-2.91.36-4.11-.44-1.11-.77-1.29-2.26-1.17-3.53.31-2.44.8-4.87 1.07-7.32-.41.02-.92.08-1.23-.3-.36-.38-.18-.94-.12-1.4.09-.5.07-1.15.61-1.42.43-.17.92-.04 1.38-.1.28-.96.55-1.93.85-2.88zm-8.398 4.885c.937-.95 2.066-1.734 3.36-2.126.564-.26 1.292.22 1.278.85-.105.83-.298 1.64-.43 2.46-.06.4-.403.75-.804.8-1.457.25-2.72 1.14-3.73 2.2-.253.32-.625.62-.67 1.05-.31 2.11-.638 4.22-.965 6.33-.045.45-.43.89-.892.86h-2.26c-.52.03-.98-.5-.92-1.03.653-4.18 1.307-8.34 1.946-12.52.03-.42.33-.83.76-.88.55-.03 1.1-.02 1.67-.02.45 0 .86.41.86.87 0 .64-.06 1.31-.07 1.97.36-.23.58-.59.88-.86zM24.854 32.53c.802-.166 1.634-.03 2.437-.076.47-.06.96.242 1.03.71.06.42-.06.83-.1 1.236-.61 3.875-1.22 7.75-1.81 11.626-.04.438-.4.875-.86.86-.8 0-1.6.015-2.42-.015-.5-.06-.88-.64-.74-1.14.64-4.02 1.25-8.04 1.89-12.06.03-.43.15-.95.6-1.13zm48.094.196c-2.215-.422-4.474-.724-6.718-.498-2.007.256-4.028 1.176-5.26 2.85-1.71 2.202-2.29 5.158-1.904 7.902.208 1.312.773 2.64 1.828 3.453.98.77 2.304.875 3.493.68 1.664-.333 3.076-1.418 4.235-2.625.06.513-.06 1.026-.03 1.523.03.47.447.91.907.88h1.51c.44 0 .82-.42.85-.86.64-4.08 1.28-8.16 1.9-12.23.09-.51-.31-1.01-.82-1.07zm-4.177 7.102c-.59 1.13-1.42 2.157-2.36 3.03-.53.454-1.22.92-1.94.77-.71-.15-1.05-.904-1.21-1.553-.37-1.688-.03-3.528.91-4.99.42-.68 1.09-1.192 1.86-1.403 1.09-.272 2.23-.136 3.29.165l.06.06c-.13 1.313-.39 2.61-.58 3.92zm-24.99-2.262c-.01-1.508-.41-3.09-1.45-4.222-.71-.8-1.78-1.206-2.82-1.19-1.72-.062-3.34.798-4.6 1.944-.28.226-.47.558-.79.74 0-.5.05-.996.03-1.51.02-.467-.41-.874-.86-.874h-1.52c-.47 0-.86.423-.89.89-.93 6.032-1.89 12.064-2.82 18.096-.13.558.34 1.13.91 1.116.84-.015 1.68.06 2.5-.06.66-.182.64-.95.75-1.51.24-1.326.41-2.653.55-3.995 2.93.58 6.34.19 8.52-2.06 1.78-1.97 2.62-4.7 2.53-7.36zm-4.16 1.523c-.09 1.38-.58 2.79-1.53 3.8-1.23 1.19-3.1 1.02-4.62.61-.03-.05-.07-.14-.09-.18.24-1.32.36-2.64.66-3.94.83-1.39 1.85-2.79 3.29-3.56.54-.26 1.27-.2 1.65.3.66.83.72 1.94.66 2.95z"/>
  </g>
</svg>
