<svg xmlns="http://www.w3.org/2000/svg" width="85" height="72" viewBox="0 0 85 72" xmlns:xlink="http://www.w3.org/1999/xlink">
  <defs>
    <path id="a" d="M0 .023h84.866v23.952H0"/>
    <path id="c" d="M0 .023h84.866v23.952H0l14.696-7.27"/>
  </defs>
  <g fill="none" fill-rule="evenodd">
    <g transform="translate(0 24)">
      <mask id="b" fill="#fff">
        <use xlink:href="#a"/>
      </mask>
      <path fill="#000" d="M16.346 10.275H9.214c-.184 0-.333.155-.333.348v3.638c0 .2.15.35.34.35H12v4.52s-.626.23-2.353.23c-2.037 0-4.883-.77-4.883-7.31 0-6.53 2.964-7.39 5.747-7.39 2.41 0 3.45.45 4.11.66.21.07.4-.15.4-.34l.8-3.51c0-.09-.03-.2-.12-.27C15.42.98 13.78.03 9.65.03 4.882.022 0 2.138 0 12.3c0 10.16 5.59 11.675 10.303 11.675 3.9 0 6.268-1.74 6.268-1.74.1-.056.11-.2.11-.264V10.63c0-.193-.15-.348-.33-.348" mask="url(#b)"/>
    </g>
    <path fill="#000" d="M53.098 25.24c0-.193-.147-.35-.33-.35H48.75c-.183 0-.332.157-.332.35v8.1h-6.26v-8.1c0-.193-.146-.35-.33-.35h-4.015c-.183 0-.332.157-.332.35v21.93c0 .192.15.35.34.35h4.02c.19 0 .33-.158.33-.35v-9.38h6.26l-.01 9.38c0 .192.15.35.33.35h4.03c.19 0 .33-.158.33-.35V25.24zm-29.175 2.878c0-1.51-1.16-2.728-2.59-2.728-1.428 0-2.588 1.22-2.588 2.728 0 1.508 1.16 2.73 2.59 2.73s2.588-1.222 2.588-2.73m-.287 14.425V32.42c0-.19-.15-.348-.332-.348H19.3c-.183 0-.347.198-.347.39v14.502c0 .426.254.553.584.553h3.606c.396 0 .493-.203.493-.56v-4.414zM68.36 32.105h-3.986c-.182 0-.33.157-.33.35v10.752s-1.013.774-2.45.774c-1.437 0-1.818-.68-1.818-2.14v-9.38c0-.19-.15-.35-.332-.35H55.4c-.182 0-.332.16-.332.35v10.09c0 4.36 2.33 5.43 5.533 5.43 2.63 0 4.75-1.51 4.75-1.51s.1.8.15.89c.05.1.17.19.3.19l2.58-.01c.186 0 .336-.16.336-.35V32.46c0-.194-.15-.35-.334-.35"/>
    <g transform="translate(0 24)">
      <mask id="d" fill="#fff">
        <use xlink:href="#c"/>
      </mask>
      <path fill="#000" d="M77.678 19.967c-1.382-.044-2.32-.698-2.32-.698v-6.95s.925-.6 2.06-.7c1.435-.14 2.818.32 2.818 3.89 0 3.77-.624 4.51-2.558 4.45M79.25 7.61c-2.263 0-3.803 1.055-3.803 1.055V1.24c0-.193-.148-.35-.33-.35H71.09c-.185 0-.334.157-.334.35v21.93c0 .192.15.35.333.35h2.79c.12 0 .22-.068.29-.186.07-.118.17-1.012.17-1.012s1.64 1.63 4.76 1.63c3.66 0 5.76-1.938 5.76-8.697 0-6.76-3.35-7.643-5.62-7.643" mask="url(#d)"/>
    </g>
    <path fill="#000" d="M35.176 32.07h-3.012l-.004-4.153c0-.157-.078-.236-.252-.236h-4.105c-.16 0-.245.08-.245.24v4.29s-2.057.52-2.196.56c-.138.05-.24.18-.24.34v2.69c0 .2.148.35.332.35h2.104v6.49c0 4.82 3.24 5.29 5.425 5.29.998 0 2.193-.33 2.39-.41.12-.04.19-.17.19-.31l.002-2.96c0-.2-.156-.35-.333-.35-.175 0-.625.07-1.087.07-1.48 0-1.98-.72-1.98-1.65v-6.16h3.01c.185 0 .334-.153.334-.35v-3.38c0-.192-.15-.35-.34-.35"/>
  </g>
</svg>
