<svg xmlns="http://www.w3.org/2000/svg" width="93" height="72" viewBox="0 0 93 72">
  <g fill="none" fill-rule="evenodd">
    <path fill="#201C1D" d="M32.09 30.953c-1.934 0-4.094.76-4.546 3.266-.05.26.124.39.29.43l1.983.24c.184-.01.308-.22.344-.41.17-.87.87-1.27 1.64-1.27.42 0 .89.14 1.14.54.29.44.27 1.03.27 1.54v.29c-1.17.14-2.73.22-3.83.73-1.27.57-2.16 1.75-2.16 3.48 0 2.21 1.33 3.32 3.04 3.32 1.45 0 2.25-.35 3.36-1.54.37.56.49.81 1.17 1.4.15.08.34.07.48-.06v.02c.41-.38 1.15-1.07 1.56-1.43.17-.14.13-.38 0-.57-.37-.54-.76-.97-.76-1.97v-3.32c0-1.41.12-2.71-.87-3.67-.78-.79-2.08-1.06-3.06-1.06zm26.648 0c-1.936 0-4.094.76-4.547 3.266-.04.26.13.39.3.43l1.98.24c.19-.01.31-.22.35-.41.17-.87.87-1.27 1.64-1.27.42 0 .89.14 1.14.54.28.44.24 1.03.24 1.54v.29c-1.18.14-2.7.22-3.8.73-1.27.57-2.17 1.75-2.17 3.48 0 2.21 1.33 3.32 3.04 3.32 1.44 0 2.24-.35 3.36-1.54.37.56.49.81 1.17 1.4.15.08.34.07.48-.06v.02c.41-.38 1.15-1.07 1.56-1.43.17-.14.13-.38 0-.57-.37-.54-.76-.97-.76-1.97v-3.32c0-1.41.09-2.71-.9-3.67-.78-.79-2.05-1.06-3.04-1.06zm-14.99.108c-1.25 0-2.177.65-2.67 2.03h-.026v-1.43c-.012-.2-.172-.37-.37-.38H38.78c-.217 0-.398.19-.398.41v10.93c.016.2.177.37.37.38h2.036c.217 0 .396-.18.396-.4v-5.81c0-1.26-.06-2.99 1.402-2.99 1.442 0 1.242 1.78 1.242 3v5.8c0 .21.165.39.37.41h2.036c.216 0 .396-.18.396-.4V36.8c0-.62-.025-1.528.185-2.08.21-.554.722-.92 1.216-.92.59 0 1.04.21 1.19.946.1.437.06 1.59.06 2.05V42.6c0 .21.17.39.37.41h2.04c.22 0 .4-.18.4-.4V35.7c0-1.17.12-2.5-.53-3.42-.57-.83-1.5-1.19-2.35-1.19-1.2 0-2.31.642-2.8 2.022-.57-1.38-1.37-2.026-2.64-2.026zm34.605 0c-2.94 0-4.573 2.64-4.573 6.05 0 3.38 1.614 6.1 4.573 6.1 2.847 0 4.653-2.65 4.653-5.99 0-3.45-1.636-6.15-4.653-6.15zm11.605 0c-1.405 0-2.208.72-2.775 2.22h-.027V31.6c-.036-.168-.192-.286-.37-.296H84.91c-.206 0-.38.15-.397.35v10.93c0 .208.166.392.37.406h2.01c.215 0 .392-.184.395-.405v-5.883c0-.738.06-1.41.344-2.078.228-.53.67-.864 1.163-.864 1.403 0 1.27 1.745 1.27 2.942v5.937c.02.18.183.33.37.35h2.035c.2 0 .373-.16.396-.35v-6.89c0-1.06.003-2.53-.528-3.4-.57-.95-1.47-1.3-2.38-1.3zm-24.426.19c-.207 0-.37.17-.37.41v1.57c0 .24.158.41.37.41h3.49l-3.992 6.01c-.25.39-.27.83-.27 1.08v1.6c0 .23.244.48.476.35 2.275-1.27 5-1.15 7.06-.03.25.14.5-.12.5-.35v-1.67c-.02-.22-.106-.44-.37-.59-1.167-.68-2.522-.89-3.806-.86L72.084 34c.32-.465.5-.745.502-.97v-1.35c0-.23-.156-.405-.37-.405h-6.69zm12.82 2.05c.646 0 1.12.3 1.35 1.06.264.88.29 1.97.29 2.89 0 1.41-.064 3.73-1.64 3.73-1.592 0-1.585-2.87-1.585-4.21 0-1.33.088-3.45 1.586-3.45zm-45.178 4v.46c0 .83.03 1.53-.37 2.27-.323.6-.83.98-1.4.98-.78 0-1.243-.64-1.243-1.56 0-1.81 1.55-2.13 3.02-2.13zm26.648 0v.46c0 .83.03 1.53-.37 2.27-.324.6-.83.98-1.402.98-.78 0-1.242-.64-1.242-1.56 0-1.81 1.543-2.13 3.014-2.13z"/>
    <path fill="#000" d="M73.013 43.34v1.566h1.03V43.34h-1.03zm-29.9.27v11.147h.953v-.998c.203.39.434.69.714.89.28.2.6.29.95.29.7 0 1.304-.37 1.825-1.11.522-.74.794-1.82.794-3.19 0-.9-.12-1.64-.35-2.27-.23-.63-.54-1.1-.93-1.41-.39-.31-.83-.49-1.3-.49-.34 0-.65.09-.93.27-.28.18-.5.47-.72.83V43.6H43.1zm9.782 2.62c-.717 0-1.286.215-1.69.646-.407.43-.61.985-.61 1.674 0 .4.09.738.24 1.052.148.315.363.57.633.756.27.187.81.433 1.613.702.56.182.89.337 1.04.458.21.178.32.41.32.73 0 .37-.12.677-.37.917-.24.24-.58.35-1.03.35-.45 0-.81-.127-1.08-.404-.27-.27-.41-.69-.47-1.26l-1.03.22c.23 1.73 1.08 2.59 2.54 2.59.78 0 1.38-.22 1.83-.7.45-.47.69-1.12.69-1.89 0-.41-.07-.77-.21-1.08-.14-.3-.33-.52-.59-.7-.25-.17-.81-.41-1.66-.7-.62-.22-.99-.38-1.11-.48-.21-.17-.32-.4-.32-.7 0-.3.1-.56.32-.75.22-.19.56-.29 1.01-.29.79 0 1.23.44 1.327 1.32l1.005-.16c-.07-.55-.19-.99-.37-1.29-.18-.3-.45-.55-.794-.72-.343-.18-.74-.24-1.19-.24zm6.32 0c-.827 0-1.525.347-2.063 1.078-.54.732-.793 1.793-.793 3.185 0 1.34.25 2.392.79 3.104.53.71 1.22 1.052 2.09 1.052.68 0 1.25-.21 1.71-.65.46-.44.8-1.08.98-1.95l-1.06-.19c-.31 1.1-.87 1.64-1.64 1.65-.5 0-.9-.22-1.24-.68-.35-.46-.54-1.15-.58-2.05h4.54v-.38c0-1.36-.27-2.39-.8-3.11-.53-.72-1.17-1.08-1.96-1.08zm6.264 0c-.25 0-.47.084-.67.27-.2.183-.43.565-.66 1.132v-1.24h-.93v8.068h1.03v-4.21c0-.587.05-1.152.18-1.673.07-.3.21-.535.39-.702.18-.167.39-.243.6-.243.24 0 .48.1.74.297l.34-1.27c-.36-.3-.71-.43-1.06-.43zm12.63 0c-.82 0-1.49.35-2.01 1.05-.52.703-.79 1.756-.79 3.16 0 1.39.28 2.445.79 3.157.51.71 1.16 1.052 1.95 1.052.66 0 1.22-.25 1.69-.76s.75-1.25.87-2.22l-1.01-.17c-.07.69-.25 1.18-.53 1.51-.28.32-.61.48-1 .48-.5 0-.93-.24-1.25-.73-.32-.49-.48-1.28-.48-2.38 0-1.06.17-1.83.5-2.32.33-.49.76-.76 1.27-.76.34 0 .63.14.87.4.24.27.4.69.5 1.24l1-.22c-.12-.85-.39-1.49-.82-1.92-.43-.43-.96-.62-1.59-.62zm5.89 0c-.83 0-1.53.347-2.07 1.078-.54.732-.8 1.793-.8 3.185 0 1.34.26 2.392.79 3.104.53.71 1.23 1.052 2.09 1.052.68 0 1.25-.21 1.72-.65.46-.44.8-1.08.98-1.95l-1.06-.19c-.31 1.1-.84 1.64-1.62 1.65-.5 0-.93-.22-1.27-.68-.35-.46-.54-1.15-.58-2.05h4.54v-.38c0-1.36-.27-2.39-.8-3.11-.53-.72-1.17-1.08-1.96-1.08zm6.1 0c-.72 0-1.29.215-1.69.646-.41.43-.61.985-.61 1.674 0 .4.06.738.21 1.052.14.315.36.57.63.756.27.187.81.433 1.61.702.55.182.91.337 1.06.458.21.178.31.41.31.73 0 .37-.13.677-.37.917-.25.24-.59.35-1.03.35-.45 0-.82-.127-1.09-.404-.27-.27-.44-.69-.5-1.26l-1.03.22c.23 1.73 1.08 2.59 2.54 2.59.78 0 1.4-.22 1.85-.7.45-.47.69-1.12.69-1.89 0-.41-.07-.78-.21-1.08-.14-.3-.36-.52-.61-.7-.25-.17-.79-.41-1.64-.7-.62-.22-1.01-.38-1.14-.48-.21-.17-.32-.4-.32-.7 0-.3.12-.56.34-.75.21-.19.55-.29 1-.29.79 0 1.23.44 1.32 1.32l1-.16c-.07-.55-.19-.99-.37-1.29-.19-.3-.45-.55-.8-.72-.34-.18-.736-.24-1.19-.24zm-23.58.16l2.3 8.07h.97l2.3-8.07h-1.05l-1.34 4.94c-.17.597-.31 1.112-.4 1.538-.11-.536-.22-1.1-.37-1.646l-1.32-4.83h-1.08zm6.47 0v8.07h1.03v-8.07H73zm-33.89.11c-.82 0-1.48.374-2.01 1.105-.54.732-.82 1.793-.82 3.185 0 1.34.26 2.366.79 3.076s1.23 1.08 2.09 1.08c.68 0 1.23-.237 1.69-.675.46-.43.77-1.08.95-1.94l-1.04-.16c-.3 1.11-.85 1.65-1.61 1.65-.49 0-.9-.21-1.24-.67-.34-.46-.54-1.14-.58-2.05h4.49l.03-.38c0-1.36-.27-2.41-.8-3.13-.52-.72-1.18-1.08-1.96-1.08zm-11.61.187l1.85 8.07h1.08l1.21-6.207.21 1.376.98 4.83h1.06l1.87-8.07h-.98l-1.03 4.67-.34 1.566-.32-1.565-.9-4.67h-1.05l-.95 4.724-.32 1.68-.37-1.72-.95-4.67H27.5zm31.67.648c.51 0 .93.254 1.27.756.23.35.37.87.42 1.57h-3.41c.03-.71.22-1.25.55-1.67.32-.42.7-.65 1.16-.65zm24.79 0c.51 0 .94.254 1.27.756.23.35.38.87.42 1.57h-3.41c.03-.71.23-1.25.55-1.67.32-.42.7-.65 1.16-.65zm-44.86.297c.51 0 .91.254 1.24.756.23.344.38.866.42 1.565H37.4c.034-.71.205-1.282.53-1.7.323-.418.706-.62 1.164-.62zm6.56 0c.45 0 .84.26 1.16.756.31.496.45 1.262.45 2.32 0 1.034-.15 1.803-.48 2.322-.33.52-.72.782-1.14.782-.31 0-.6-.106-.85-.323-.26-.22-.45-.53-.58-.95-.14-.42-.21-1.06-.21-1.89 0-.98.17-1.72.5-2.24.33-.52.71-.78 1.13-.78z"/>
    <path fill="#F7A80D" d="M12.7 39.077l-3.94 1.727 3.65 1.592 4.23-1.592-3.94-1.727zm-5.922 2.16l-.132 7.772 5.763 2.59v-8.07l-5.64-2.3zm11.844 0l-5.208 2.023v7.61l5.208-2.158v-7.476zm6.212-24.183L20.87 18.78l3.673 1.594 4.23-1.593-3.94-1.72zm-5.5 2.294v7.773l4.918 1.46.16-7.07-5.077-2.16zm11 .432l-4.654 2.024v7.638l4.653-2.16V19.78zM6.21 27.994L2.27 29.72l3.65 1.593 4.23-1.592L6.21 28zm-5.92 2.16l-.134 7.77 5.763 2.592v-8.07L.29 30.154zm11.842 0l-5.208 2.023v7.61l5.208-2.158v-7.48zm6.768-2.448l-3.94 1.728 3.648 1.592 4.23-1.592-3.94-1.728zm-5.922 2.16l-.133 7.772 5.763 2.59V32.16l-5.63-2.294zm11.843 0l-5.2 2.024v7.61l5.21-2.16v-7.474zm12.41-12.812l-3.94 1.727 3.65 1.6 4.23-1.59-3.94-1.72zm-5.92 2.16l-.13 7.772 5.77 2.59v-8.07l-5.63-2.293zm11.85 0l-5.21 2.023v7.61l5.21-2.158v-7.48z"/>
  </g>
</svg>
