<svg xmlns="http://www.w3.org/2000/svg" width="92" height="72" viewBox="0 0 92 72" xmlns:xlink="http://www.w3.org/1999/xlink">
  <defs>
    <path id="a" d="M.14 24.674h11.724V.058H.14v24.616z"/>
    <path id="c" d="M7.495 9.644V.114H.133v9.53h7.362z"/>
  </defs>
  <g fill="none" fill-rule="evenodd">
    <path fill="#000" d="M10.34 26.295c-4.29.906-7.517 4.693-7.517 9.218 0 4.968 3.892 9.048 8.807 9.4v-4.18c-2.6-.336-4.615-2.548-4.615-5.22 0-2.67 2.015-4.883 4.615-5.22v-1.29c-3.313.343-5.905 3.132-5.905 6.51 0 2.926 1.943 5.408 4.615 6.244v1.66c-3.572-.882-6.227-4.09-6.227-7.903 0-4.262 3.314-7.768 7.517-8.116v-4.094C5.157 23.658 0 29 0 35.514c0 6.513 5.157 11.853 11.63 12.21v-1.286C5.87 46.084 1.29 41.32 1.29 35.513c0-5.366 3.91-9.838 9.05-10.767"/>
    <g transform="translate(12.848 23.165)">
      <mask id="b" fill="#fff">
        <use xlink:href="#a"/>
      </mask>
      <path fill="#228ECD" d="M.14.058v1.295c5.808.357 10.423 5.16 10.423 11.013 0 5.41-3.94 9.917-9.122 10.853v-1.57c4.33-.916 7.58-4.73 7.58-9.29 0-5.01-3.92-9.125-8.88-9.48V7.1c2.62.34 4.66 2.57 4.66 5.263S2.765 17.286.144 17.625v1.3c3.34-.345 5.954-3.156 5.954-6.562 0-2.95-1.96-5.45-4.652-6.294V4.4c3.6.888 6.278 4.12 6.278 7.966 0 4.296-3.34 7.83-7.578 8.18v4.128c6.526-.358 11.724-5.742 11.724-12.308C11.862 5.8 6.664.416.14.058" mask="url(#b)"/>
    </g>
    <path fill="#000" d="M35.658 33.337v-4.172h-4.94v4.172H29.05v-9.53h1.667v3.886h4.94v-3.887h1.667v9.53m5.806-7.858l-1.707 4.544h3.417l-1.71-4.544zm2.878 7.86l-.698-1.844h-4.357l-.698 1.843H38.36l3.732-9.53h2.08l3.73 9.53h-1.894zm2.042-4.758c0-2.945 2.177-4.93 4.983-4.93 1.908 0 3.104.985 3.802 2.128l-1.41.743c-.456-.8-1.38-1.38-2.392-1.38-1.88 0-3.276 1.43-3.276 3.448 0 1.986 1.396 3.444 3.276 3.444 1.01 0 1.936-.6 2.392-1.386l1.424.715c-.73 1.145-1.91 2.16-3.82 2.16-2.81 0-4.99-2-4.99-4.93m15.82 4.75l-3.178-4.03-.84.987v3.043h-1.666v-9.53h1.666v4.53l3.717-4.53h2.066l-3.86 4.48 4.16 5.043M34.633 40.7c0-.916-.684-1.502-1.624-1.502h-2.3v3.03H33c.94 0 1.624-.6 1.624-1.53zm-.157 6.558L32.383 43.7h-1.666v3.558H29.05v-9.532h4.173c1.88 0 3.118 1.215 3.118 2.987 0 1.686-1.11 2.615-2.26 2.8l2.34 3.745h-1.94zm3.524 0v-9.532h6.508v1.472h-4.84v2.458h4.74v1.472h-4.74v2.658h4.84v1.472m5.626-7.86l-1.71 4.545h3.418l-1.708-4.545zm2.876 7.86l-.698-1.844h-4.357l-.698 1.844h-1.894l3.73-9.532h2.08l3.73 9.532H53.01zm2.04-4.758c0-2.945 2.18-4.93 4.985-4.93 1.908 0 3.104.985 3.802 2.128l-1.41.743c-.455-.8-1.38-1.38-2.392-1.38-1.88 0-3.275 1.43-3.275 3.448 0 1.987 1.395 3.444 3.275 3.444 1.01 0 1.937-.6 2.392-1.386l1.425.716c-.727 1.14-1.91 2.155-3.817 2.155-2.805 0-4.984-2-4.984-4.93m12.48 4.758V39.2h-2.88v-1.472h7.42V39.2h-2.88v8.06m11.37-4.76c0-1.973-1.24-3.445-3.145-3.445-1.923 0-3.147 1.472-3.147 3.444 0 1.95 1.224 3.44 3.147 3.44 1.908 0 3.147-1.49 3.147-3.45m-8.002 0c0-2.844 2.008-4.93 4.856-4.93 2.833 0 4.856 2.086 4.856 4.93 0 2.843-2.03 4.93-4.86 4.93-2.85 0-4.86-2.087-4.86-4.93"/>
    <g transform="translate(83.732 37.614)">
      <mask id="d" fill="#fff">
        <use xlink:href="#c"/>
      </mask>
      <path fill="#000" d="M5.715 3.085c0-.914-.683-1.5-1.623-1.5H1.8v3.03h2.29c.94 0 1.623-.6 1.623-1.53zm-.156 6.56l-2.1-3.56H1.8v3.56H.132V.112h4.173c1.88 0 3.118 1.214 3.118 2.986 0 1.686-1.11 2.615-2.264 2.8l2.33 3.744H5.56z" mask="url(#d)"/>
    </g>
  </g>
</svg>
