<svg xmlns="http://www.w3.org/2000/svg" width="79" height="72" viewBox="0 0 79 72" xmlns:xlink="http://www.w3.org/1999/xlink">
  <defs>
    <path id="a" d="M0 .097h78.9V23.74H0"/>
    <path id="c" d="M0 .097h78.9V23.74H0z"/>
  </defs>
  <g fill="none" fill-rule="evenodd">
    <g transform="translate(0 24)">
      <mask id="b" fill="#fff">
        <use xlink:href="#a"/>
      </mask>
      <path fill="#365EBF" d="M53.99 23.34h-2.124c-.432 0-.763-.234-.795-.668l-.03-.836c-1.53 1.238-3.35 1.905-5.273 1.905-3.714 0-5.24-2.37-5.24-5.98V7.88c0-.568.333-.77.86-.77h2.325c.53 0 .83.167.83.77v9.18c0 1.84.464 3.108 2.455 3.108 1.26 0 2.853-.7 3.848-1.603V7.877c0-.568.3-.77.83-.77h2.355c.53 0 .83.167.83.77v14.528c0 .7-.2.935-.863.935" mask="url(#b)"/>
    </g>
    <path fill="#365EBF" d="M0 31.775c0-.4.2-.668.597-.668h2.806c.398 0 .63.234.63.668v14.73c0 .6-.266.834-.83.834H.863C.268 47.34 0 47.1 0 46.5V31.77zm59.004 0c0-.4.2-.668.597-.668h2.81c.4 0 .63.234.63.668v14.73c0 .6-.262.834-.83.834h-2.34c-.593 0-.86-.24-.86-.84V31.77zM21.817 47.34h-2.39c-.595 0-.794-.3-.794-.87v-9.088c0-1.837-.497-3.14-2.522-3.14-1.29 0-2.88.703-3.91 1.604v10.658c0 .57-.23.836-.793.836H8.98c-.5 0-.798-.266-.798-.802V31.946c0-.535.234-.835.83-.835h2.156c.464 0 .764.14.796.64l.033.89c1.527-1.233 3.45-1.934 5.376-1.934 3.715 0 5.24 2.34 5.24 5.98v9.79c0 .57-.198.87-.796.87M33.64 26.548c0-1.354-1.088-2.45-2.432-2.45-1.344 0-2.434 1.096-2.434 2.45s1.09 2.45 2.434 2.45 2.432-1.096 2.432-2.45m3.463 4.56c.397 0 .63.132.63.567v2.354c0 .4-.265.63-.664.63h-3.85V46.5c0 .604-.268.837-.866.837H30.05c-.597 0-.862-.234-.862-.836V34.66h-3.844c-.398 0-.663-.234-.663-.634V31.67c0-.434.236-.567.63-.567H37.1zm37.707-4.56c0-1.354-1.09-2.45-2.434-2.45s-2.434 1.096-2.434 2.45 1.09 2.45 2.434 2.45 2.433-1.096 2.433-2.45"/>
    <g transform="translate(0 24)">
      <mask id="d" fill="#fff">
        <use xlink:href="#c"/>
      </mask>
      <path fill="#365EBF" d="M78.27 7.107c.398 0 .63.133.63.568v2.354c0 .4-.264.63-.663.63h-3.845V22.5c0 .604-.264.837-.862.837h-2.31c-.597 0-.86-.234-.86-.836l-.002-11.84h-3.844c-.4 0-.664-.23-.664-.63V7.674c0-.435.233-.568.63-.568h11.79z" mask="url(#d)"/>
    </g>
  </g>
</svg>
