<svg xmlns="http://www.w3.org/2000/svg" width="110" height="72" viewBox="0 0 110 72" xmlns:xlink="http://www.w3.org/1999/xlink">
  <defs>
    <path id="a" d="M12.343 17.613V.2H.07v17.413z"/>
  </defs>
  <g fill="none" fill-rule="evenodd">
    <path fill="#ED1C24" d="M19.924 22L31.61 49.828V22M0 22v27.828L11.692 22M10.7 44.23h5.45l2.226 5.596h4.878L15.81 32.254"/>
    <path fill="#000" d="M41.93 42.777l-1.116 5.614h-4.122l5.142-23.35h5.05l4.672 23.36h-4.144l-1.09-5.61H41.93zm3.99-3.296l-.857-5.05c-.245-1.46-.558-3.73-.797-5.31h-.093c-.25 1.59-.6 3.94-.858 5.33l-.925 5.05h3.53zm19.248-15.06v19.13c0 1.52.078 3.38.14 4.84h-3.654l-.24-1.94h-.085c-.62 1.2-1.95 2.22-3.55 2.22-3.5 0-5.24-3.84-5.24-8.69 0-5.91 2.58-8.78 5.4-8.78 1.47 0 2.43.72 2.91 1.76h.07v-8.53h4.23zm-4.23 13.55c0-.31 0-.67-.063-1.01-.163-1.15-.78-2.19-1.772-2.19-1.702 0-2.328 2.44-2.328 5.29 0 3.28.893 5.15 2.27 5.15.628 0 1.353-.32 1.747-1.69.096-.275.146-.64.146-1.07v-4.47zM73.9 48.66c-3.9 0-6.345-3.114-6.345-8.687 0-6.083 3.14-8.787 6.443-8.787 3.846 0 6.257 3.266 6.257 8.688 0 6.968-3.777 8.786-6.322 8.786H73.9zm.08-3.227c1.614 0 2.014-3.028 2.014-5.534 0-2.38-.4-5.49-2.086-5.49-1.785 0-2.16 3.1-2.16 5.49 0 2.87.47 5.53 2.194 5.53h.037zm8.64-21.02h4.23v8.817h.068c.834-1.3 1.944-2.044 3.555-2.044 3.19 0 4.792 3.607 4.792 8.324 0 5.96-2.39 9.15-5.486 9.15-1.48 0-2.46-.65-3.35-2.3h-.09l-.24 2.026h-3.63c.06-1.403.14-3.324.14-4.84v-19.13zm4.23 17.93c0 .422.08.817.168 1.082.425 1.416 1.144 1.764 1.72 1.764 1.637 0 2.297-2.06 2.297-5.36 0-3.01-.697-5.07-2.315-5.07-.803 0-1.48.86-1.71 1.79-.082.29-.16.75-.16 1.06v4.72z"/>
    <g transform="translate(96.95 30.96)">
      <mask id="b" fill="#fff">
        <use xlink:href="#a"/>
      </mask>
      <path fill="#000" d="M4.19 10.328c.05 3.06 1.667 4.058 3.675 4.058 1.273 0 2.364-.282 3.17-.583l.57 3.027c-1.122.48-2.854.783-4.515.783-4.54 0-7.02-3.086-7.02-8.358C.07 3.598 2.946.2 6.702.2c3.63 0 5.64 3.003 5.64 7.905 0 1.122-.046 1.754-.12 2.247l-8.033-.024zm4.264-2.975c.022-2.377-.68-4.042-2.02-4.042-1.532 0-2.183 2.23-2.23 4.05h4.25z" mask="url(#b)"/>
    </g>
  </g>
</svg>
