<svg xmlns="http://www.w3.org/2000/svg" width="97" height="72" viewBox="0 0 97 72">
  <g fill="none" fill-rule="evenodd">
    <rect width="97" height="72"/>
    <g fill="#FFFFFF" transform="translate(0 12)">
      <path d="M3.41148725 40.6102636C1.81139943 40.6102636 1.01149292 41.2228091 1.01149292 42.4477636 1.01149292 43.5141273 1.57728045 44.0471727 2.70858074 44.0471727 3.14274504 44.0471727 3.61125779 43.9622182 4.11425637 43.7919 4.61711756 43.6219909 5.12574929 43.3724455 5.64015156 43.0434L5.64015156 40.9165364C4.86291501 40.7122636 4.11988952 40.6102636 3.41148725 40.6102636M3.65165156 35.9312182C5.62874788 35.9312182 6.61702125 36.7765364 6.61702125 38.4664909L6.61702125 44.4894C6.61702125 44.6597182 6.53142493 44.7446727 6.36023229 44.7446727L6.00026062 44.7446727C5.82851841 44.7446727 5.73701416 44.6597182 5.72588527 44.4894L5.65732578 43.7578091C4.67413598 44.5404 3.64560623 44.9320364 2.57159915 44.9320364 1.78282153 44.9320364 1.15713031 44.7079909.694388102 44.2599.231371105 43.8119455 0 43.2135818 0 42.4648091 0 41.6369455.283031161 40.9845818.848543909 40.5082636 1.41433144 40.0316727 2.19459065 39.7938545 3.18877195 39.7938545 3.55451416 39.7938545 3.95419263 39.8278091 4.38863173 39.8957182 4.82265864 39.9637636 5.24006091 40.0601727 5.64015156 40.1850818L5.64015156 38.7558545C5.64015156 38.0638091 5.47417989 37.5675818 5.14292351 37.2669 4.81125496 36.9666273 4.26277904 36.8160818 3.49708357 36.8160818 2.7886813 36.8160818 2.04002266 36.9295364 1.25151983 37.1564455 1.12566714 37.1904 1.02578187 37.2216273.951589235 37.2501273.876847025 37.2783545.817080737 37.2924.771603399 37.2924.634209632 37.2924.565924929 37.2187636.565924929 37.0713545L.565924929 36.7991727C.565924929 36.6288545.639842776 36.5158091.78877762 36.4589455 1.22280453 36.2886273 1.6887068 36.1584 2.18566006 36.0675818 2.68316289 35.9767636 3.17118555 35.9312182 3.65165156 35.9312182M18.8231385 35.93115C19.611504 35.93115 20.2115025 36.1497409 20.6229969 36.5865136 21.0343538 37.02315 21.2401697 37.6667864 21.2401697 38.5176955L21.2401697 44.4894682C21.2401697 44.6597864 21.1541612 44.7447409 20.9829686 44.7447409L20.5199516 44.7447409C20.3487589 44.7447409 20.2630252 44.6597864 20.2630252 44.4894682L20.2630252 38.9258318C20.2630252 38.1773318 20.1342873 37.6385591 19.8770861 37.3093773 19.619885 36.9804682 19.200147 36.8160136 18.6171853 36.8160136 17.520096 36.8160136 16.4856584 37.1734227 15.5142844 37.8879682 15.5486329 38.1602864 15.5658071 38.4270136 15.5658071 38.6876045L15.5658071 44.4894682C15.5658071 44.6597864 15.479936 44.7447409 15.3084686 44.7447409L14.8457263 44.7447409C14.6745337 44.7447409 14.5885252 44.6597864 14.5885252 44.4894682L14.5885252 38.9258318C14.5885252 38.1773318 14.4599246 37.6385591 14.2029983 37.3093773 13.9456598 36.9804682 13.525647 36.8160136 12.9429601 36.8160136 11.8799445 36.8160136 10.8628184 37.1622409 9.89158187 37.8540136L9.89158187 44.4894682C9.89158187 44.6597864 9.80557337 44.7447409 9.63438074 44.7447409L9.17163853 44.7447409C8.99989632 44.7447409 8.91443739 44.6597864 8.91443739 44.4894682L8.91443739 36.4418318C8.91443739 36.2715136 8.99989632 36.1864227 9.17163853 36.1864227L9.51443598 36.1864227C9.68562861 36.1864227 9.7829034 36.2715136 9.80557337 36.4418318L9.87440765 37.1224227C10.3885351 36.7479682 10.9257448 36.45615 11.4856244 36.24615 12.045504 36.0362864 12.6001626 35.93115 13.1485011 35.93115 14.2225082 35.93115 14.942589 36.3683318 15.3084686 37.2413318 15.8572193 36.8105591 16.4315252 36.4841045 17.0313864 36.2631955 17.6316598 36.0418773 18.2284983 35.93115 18.8231385 35.93115M26.3998552 40.6102636C24.7999048 40.6102636 23.9998609 41.2228091 23.9998609 42.4477636 23.9998609 43.5141273 24.5656484 44.0471727 25.6970861 44.0471727 26.131113 44.0471727 26.5999006 43.9622182 27.1026244 43.7919 27.6056229 43.6219909 28.1141173 43.3724455 28.6286569 43.0434L28.6286569 40.9165364C27.851283 40.7122636 27.1082575 40.6102636 26.3998552 40.6102636M26.6400195 35.9312182C28.6171159 35.9312182 29.605664 36.7765364 29.605664 38.4664909L29.605664 44.4894C29.605664 44.6597182 29.5197929 44.7446727 29.3486003 44.7446727L28.9886286 44.7446727C28.8170238 44.7446727 28.7255195 44.6597182 28.7142533 44.4894L28.6458312 43.7578091C27.6626414 44.5404 26.6341116 44.9320364 25.5599671 44.9320364 24.7711895 44.9320364 24.1456357 44.7079909 23.6828935 44.2599 23.2197391 43.8119455 22.988368 43.2135818 22.988368 42.4648091 22.988368 41.6369455 23.2713992 40.9845818 23.8370493 40.5082636 24.4028368 40.0316727 25.1829586 39.7938545 26.1771399 39.7938545 26.5428822 39.7938545 26.942698 39.8278091 27.3769997 39.8957182 27.811164 39.9637636 28.2285663 40.0601727 28.6286569 40.1850818L28.6286569 38.7558545C28.6286569 38.0638091 28.4625479 37.5675818 28.1312915 37.2669 27.7996229 36.9666273 27.251147 36.8160818 26.485589 36.8160818 25.7770493 36.8160818 25.0283907 36.9295364 24.2398878 37.1564455 24.1140351 37.1904 24.0142873 37.2216273 23.9400946 37.2501273 23.8653524 37.2783545 23.8055861 37.2924 23.7601088 37.2924 23.6228524 37.2924 23.5542929 37.2187636 23.5542929 37.0713545L23.5542929 36.7991727C23.5542929 36.6288545 23.6283482 36.5158091 23.7771456 36.4589455 24.2113099 36.2886273 24.6772122 36.1584 25.1743028 36.0675818 25.6715309 35.9767636 26.1598283 35.9312182 26.6400195 35.9312182M37.7999108 44.1492L37.7999108 44.4894273C37.7999108 44.6597455 37.7143144 44.7447 37.5425722 44.7447L31.5085127 44.7447C31.3369079 44.7447 31.2511742 44.6597455 31.2511742 44.4894273L31.2511742 44.1322909C31.2511742 44.0191091 31.2656006 43.9282909 31.2941785 43.8599727 31.322619 43.7919273 31.3768895 43.7128364 31.4571275 43.6220182L36.6686105 37.0374273 31.6798428 37.0374273C31.5085127 37.0374273 31.4225042 36.9520636 31.4225042 36.7821545L31.4225042 36.4417909C31.4225042 36.2714727 31.5085127 36.1863818 31.6798428 36.1863818L37.5083612 36.1863818C37.679966 36.1863818 37.7655623 36.2714727 37.7655623 36.4417909L37.7655623 36.7992C37.7655623 36.8900182 37.7509986 36.9751091 37.7226955 37.0544727 37.6939802 37.1339727 37.6342139 37.2243818 37.5425722 37.3263818L32.3140524 43.8942 37.5425722 43.8942C37.7143144 43.8942 37.7999108 43.9791545 37.7999108 44.1492M42.8398027 44.1152318C44.8167616 44.1152318 45.8054472 42.8960045 45.8054472 40.4572773 45.8054472 38.0298682 44.8167616 36.8160955 42.8398027 36.8160955 40.862569 36.8160955 39.8741582 38.0298682 39.8741582 40.4572773 39.8741582 42.8960045 40.862569 44.1152318 42.8398027 44.1152318M42.8398027 44.9999591C41.5941908 44.9999591 40.6196568 44.6060045 39.9168877 43.81755 39.2139812 43.0290955 38.8626653 41.9092773 38.8626653 40.4572773 38.8626653 39.0051409 39.2139812 37.8879136 39.9168877 37.1054591 40.6196568 36.3225955 41.5941908 35.9310955 42.8398027 35.9310955 44.0852772 35.9310955 45.0596738 36.3225955 45.7624429 37.1054591 46.4654868 37.8879136 46.8170775 39.0051409 46.8170775 40.4572773 46.8170775 41.9092773 46.4654868 43.0290955 45.7624429 43.81755 45.0596738 44.6060045 44.0852772 44.9999591 42.8398027 44.9999591M53.2283241 35.93115C54.0735705 35.93115 54.7136881 36.1497409 55.148402 36.5865136 55.5825663 37.02315 55.7996484 37.6667864 55.7996484 38.5176955L55.7996484 44.4894682C55.7996484 44.6597864 55.7139147 44.7447409 55.5427221 44.7447409L55.0795677 44.7447409C54.9083751 44.7447409 54.8226414 44.6597864 54.8226414 44.4894682L54.8226414 38.9258318C54.8226414 38.1773318 54.6794771 37.6385591 54.3938354 37.3093773 54.1083312 36.9804682 53.6508099 36.8160136 53.0223708 36.8160136 52.4167391 36.8160136 51.8398227 36.9098318 51.2909346 37.0967864 50.742596 37.2840136 50.2051116 37.5536045 49.6797178 37.9050136L49.6797178 44.4894682C49.6797178 44.6597864 49.5938467 44.7447409 49.4225167 44.7447409L48.9599119 44.7447409C48.7883071 44.7447409 48.7027108 44.6597864 48.7027108 44.4894682L48.7027108 36.4418318C48.7027108 36.2715136 48.7883071 36.1864227 48.9599119 36.1864227L49.3027093 36.1864227C49.473902 36.1864227 49.5710394 36.2715136 49.5938467 36.4418318L49.662681 37.1734227C50.2110195 36.7764682 50.7939813 36.4701955 51.4111541 36.2544682 52.0281895 36.0390136 52.6338212 35.93115 53.2283241 35.93115M93.7388215 40.6102636C92.1387337 40.6102636 91.3388272 41.2228091 91.3388272 42.4477636 91.3388272 43.5141273 91.9046147 44.0471727 93.035915 44.0471727 93.4699419 44.0471727 93.9387295 43.9622182 94.441728 43.7919 94.9444518 43.6219909 95.453221 43.3724455 95.9676232 43.0434L95.9676232 40.9165364C95.1901119 40.7122636 94.4472238 40.6102636 93.7388215 40.6102636L93.7388215 40.6102636zM93.9789858 35.9312182C95.9560822 35.9312182 96.9444929 36.7765364 96.9444929 38.4664909L96.9444929 44.4894C96.9444929 44.6597182 96.8587592 44.7446727 96.6875666 44.7446727L96.3275949 44.7446727C96.1559901 44.7446727 96.0644858 44.6597182 96.0533569 44.4894L95.9847975 43.7578091C95.0014703 44.5404 93.9729405 44.9320364 92.8990708 44.9320364 92.1101558 44.9320364 91.484602 44.7079909 91.0218598 44.2599 90.5587054 43.8119455 90.3273343 43.2135818 90.3273343 42.4648091 90.3273343 41.6369455 90.6103654 40.9845818 91.1758782 40.5082636 91.7418031 40.0316727 92.5219249 39.7938545 93.5161062 39.7938545 93.881711 39.7938545 94.2815269 39.8278091 94.715966 39.8957182 95.1499929 39.9637636 95.5673952 40.0601727 95.9676232 40.1850818L95.9676232 38.7558545C95.9676232 38.0638091 95.8016516 37.5675818 95.4703952 37.2669 95.1385892 36.9666273 94.5902507 36.8160818 93.8244178 36.8160818 93.1160156 36.8160818 92.3674943 36.9295364 91.5788541 37.1564455 91.4530014 37.1904 91.3531161 37.2216273 91.2790609 37.2501273 91.2041813 37.2783545 91.144415 37.2924 91.0990751 37.2924 90.9616813 37.2924 90.8931218 37.2187636 90.8931218 37.0713545L90.8931218 36.7991727C90.8931218 36.6288545 90.9671771 36.5158091 91.1161119 36.4589455 91.5501388 36.2886273 92.0160411 36.1584 92.5131317 36.0675818 93.0103598 35.9767636 93.4986572 35.9312182 93.9789858 35.9312182L93.9789858 35.9312182zM85.6526487 40.9675364L83.1667833 44.5574455C83.075279 44.6826273 82.9554717 44.7446727 82.806949 44.7446727L82.3270326 44.7446727C82.1779603 44.7446727 82.1039051 44.6826273 82.1039051 44.5574455 82.1039051 44.5123091 82.1437493 44.4384 82.2238499 44.3364L85.1555581 40.2870818 82.481051 36.5778545C82.4124915 36.4758545 82.3782805 36.4079455 82.3782805 36.3738545 82.3782805 36.2490818 82.4524731 36.1864909 82.6009958 36.1864909L83.1325722 36.1864909C83.2810949 36.1864909 83.4010397 36.2490818 83.4925439 36.3738545L85.7385198 39.5385818 87.9840836 36.3738545C88.0751756 36.2490818 88.189762 36.1864909 88.3267436 36.1864909L88.7896232 36.1864909C88.9382833 36.1864909 89.0127507 36.2490818 89.0127507 36.3738545 89.0127507 36.4194 88.9784023 36.4927636 88.9098428 36.5949L86.2696841 40.2190364 89.2013924 44.3364C89.2699518 44.4384 89.3041629 44.5123091 89.3041629 44.5574455 89.3041629 44.6826273 89.2295581 44.7446727 89.0810354 44.7446727L88.5498711 44.7446727C88.4124773 44.7446727 88.2981657 44.6826273 88.2069363 44.5574455L85.6526487 40.9675364zM77.7353329 36.7991727C76.8785453 36.7991727 76.2010567 37.0485818 75.7041034 37.5476727 75.2068754 38.0469 74.9069448 38.7783545 74.8043116 39.7424455 75.2498796 39.8561727 75.6926997 39.9412636 76.1326346 39.9977182 76.572432 40.0545818 77.0155269 40.0826727 77.4610949 40.0826727 78.318432 40.0826727 78.9468711 39.9581727 79.3469618 39.7084909 79.746915 39.4590818 79.9469603 39.0618545 79.9469603 38.5176273 79.9469603 37.3717636 79.2097054 36.7991727 77.7353329 36.7991727L77.7353329 36.7991727zM79.9126119 43.8258545C80.0611346 43.7808545 80.1699504 43.7439 80.2383725 43.7152636 80.306932 43.6870364 80.3698584 43.6729909 80.4271516 43.6729909 80.5641331 43.6729909 80.6325552 43.7467636 80.6325552 43.8941727L80.6325552 44.1322636C80.6325552 44.3139 80.5697663 44.4328091 80.4441884 44.4894 79.6210623 44.8297636 78.7471006 44.9999455 77.821204 44.9999455 76.5070326 44.9999455 75.5039207 44.6230364 74.8126926 43.8686727 74.1210524 43.1144455 73.7756445 42.0114 73.7756445 40.5594 73.7756445 39.8447182 73.8668739 39.2008091 74.0496076 38.6282182 74.2323414 38.0556273 74.4980609 37.5675818 74.8467663 37.1647636 75.1953343 36.7623545 75.6211176 36.4560818 76.1238414 36.2460818 76.6268399 36.0363545 77.1927649 35.9312182 77.821204 35.9312182 78.8155227 35.9312182 79.5841034 36.1584 80.1269462 36.6118091 80.669789 37.0659 80.9411416 37.7005364 80.9411416 38.5176273 80.9411416 39.3231273 80.6526147 39.9154909 80.0756983 40.2956727 79.4985071 40.6754455 78.6040737 40.8656727 77.3926728 40.8656727 76.9582337 40.8656727 76.5209093 40.8399 76.0812493 40.7890364 75.6413144 40.7380364 75.2039901 40.6502182 74.7698258 40.5253091 74.7698258 41.7501273 75.0296374 42.6547636 75.5496728 43.2389455 76.0697082 43.8234 76.84983 44.1152182 77.8897635 44.1152182 78.5642295 44.1152182 79.2382833 44.0190818 79.9126119 43.8258545L79.9126119 43.8258545zM70.5768428 32.4092182C70.5768428 32.2391727 70.6624391 32.1540818 70.8340439 32.1540818L71.2967861 32.1540818C71.4679788 32.1540818 71.5539873 32.2391727 71.5539873 32.4092182L71.5539873 43.2645818C71.5539873 43.5141273 71.6023499 43.6897636 71.6998994 43.7919 71.7966246 43.8941727 71.9709773 43.9453091 72.2226827 43.9453091 72.2911048 43.9453091 72.3683201 43.9395818 72.4540538 43.9282636 72.5395127 43.9168091 72.6109575 43.9112182 72.6683881 43.9112182 72.8280397 43.9112182 72.908415 43.9905818 72.908415 44.1491727L72.908415 44.4723545C72.908415 44.6087182 72.8339476 44.6938091 72.6854249 44.7276273 72.6168654 44.7504 72.516568 44.7671727 72.3854943 44.7786273 72.2535963 44.7896727 72.1366742 44.7956727 72.0337663 44.7956727 71.5766572 44.7956727 71.2195708 44.6625818 70.9623697 44.3957182 70.7053059 44.1296727 70.5768428 43.7578091 70.5768428 43.2816273L70.5768428 32.4092182zM65.1081586 40.6102636C63.5082082 40.6102636 62.7080269 41.2228091 62.7080269 42.4477636 62.7080269 43.5141273 63.2740892 44.0471727 64.4053895 44.0471727 64.8394164 44.0471727 65.3080666 43.9622182 65.8109278 43.7919 66.3140637 43.6219909 66.8224207 43.3724455 67.3369603 43.0434L67.3369603 40.9165364C66.5597238 40.7122636 65.8165609 40.6102636 65.1081586 40.6102636L65.1081586 40.6102636zM65.3481856 35.9312182C67.3254193 35.9312182 68.3136926 36.7765364 68.3136926 38.4664909L68.3136926 44.4894C68.3136926 44.6597182 68.2282337 44.7446727 68.0569037 44.7446727L67.696932 44.7446727C67.5254646 44.7446727 67.4336856 44.6597182 67.4225567 44.4894L67.3539972 43.7578091C66.3709448 44.5404 65.3422776 44.9320364 64.2682705 44.9320364 63.4794929 44.9320364 62.8538017 44.7079909 62.3910595 44.2599 61.9281799 43.8119455 61.6966714 43.2135818 61.6966714 42.4648091 61.6966714 41.6369455 61.9798399 40.9845818 62.5453527 40.5082636 63.1111402 40.0316727 63.891262 39.7938545 64.8855807 39.7938545 65.2511856 39.7938545 65.650864 39.8278091 66.0854405 39.8957182 66.5196048 39.9637636 66.9367323 40.0601727 67.3369603 40.1850818L67.3369603 38.7558545C67.3369603 38.0638091 67.1709887 37.5675818 66.8395949 37.2669 66.5080637 36.9666273 65.9595878 36.8160818 65.193755 36.8160818 64.4853527 36.8160818 63.7366941 36.9295364 62.9483286 37.1564455 62.8223385 37.1904 62.7224533 37.2216273 62.6485354 37.2501273 62.5736558 37.2783545 62.5137521 37.2924 62.4682748 37.2924 62.330881 37.2924 62.2624589 37.2187636 62.2624589 37.0713545L62.2624589 36.7991727C62.2624589 36.6288545 62.3366516 36.5158091 62.485449 36.4589455 62.9197507 36.2886273 63.3855156 36.1584 63.8824688 36.0675818 64.3798343 35.9767636 64.8681317 35.9312182 65.3481856 35.9312182L65.3481856 35.9312182zM48.4721365 0C40.7187314 0 34.4332414 6.23836364 34.4332414 13.9337727 34.4332414 20.9991818 39.7319694 26.8355455 46.6004212 27.7438636L46.6004212 24.9361364C46.6004212 24.1446818 46.0972853 23.4331364 45.3412074 23.181 41.3782215 21.8599091 38.5433759 18.1005 38.6477952 13.6986818 38.774747 8.33986364 43.1729963 4.1265 48.5735331 4.18063636 53.9542853 4.23463636 58.2993632 8.58054545 58.2993632 13.9337727 58.2993632 14.0558182 58.2964779 14.1770455 58.2919439 14.2981364 58.2909822 14.325 58.2900204 14.3522727 58.2889212 14.3794091 58.2838377 14.4916364 58.2768306 14.6035909 58.2680374 14.7148636 58.2652895 14.7503182 58.2618547 14.7856364 58.2585572 14.8209545 58.2516875 14.8986818 58.2435813 14.9758636 58.2347881 15.0529091 58.224621 15.1404545 58.2132173 15.2273182 58.2011266 15.3140455 58.1956309 15.3535909 58.1899977 15.3932727 58.1840898 15.4325455 56.9809326 23.2989545 46.6581266 27.7198636 46.6015204 27.7441364 47.2136096 27.825 47.8379269 27.8674091 48.4721365 27.8674091 56.2258164 27.8674091 62.5113065 21.6290455 62.5113065 13.9337727 62.5113065 6.23836364 56.2258164 0 48.4721365 0"/>
    </g>
  </g>
</svg>
