<svg xmlns="http://www.w3.org/2000/svg" width="185" height="72" viewBox="0 0 185 72" xmlns:xlink="http://www.w3.org/1999/xlink">
  <defs>
    <path id="a" d="M133.6927 17.56382V.11894H.21932v17.44488z"/>
    <path id="c" d="M0 .28477v4.01335h5.7343V.28477H0z"/>
    <path id="e" d="M1.93364.2601H.22484v6.3345h1.7088V.2601z"/>
    <path id="g" d="M.16573 30.47687h30.36453V.22382H.16573v30.25305z"/>
  </defs>
  <g id="logo" fill="none" fill-rule="evenodd">
    <g transform="translate(50.702 31.022)">
      <path class="logo" fill="#FFF" d="M21.09818.11894h2.40564l5.94096 15.0013 5.9171-15.0013h2.40478V17.229H36.1312V2.44394h-.04777L30.21453 17.229h-1.5395L22.78225 2.44394h-.0482l.00002 14.78504h-1.6359V.11893zM12.41428 15.84h-5.6284V9.00942h5.6284c2.88624 0 4.52213 1.10218 4.52213 3.3078 0 2.77923-2.093 3.52278-4.5221 3.52278zM6.78588 1.5092h5.6284c2.57364 0 3.87262 1.07837 3.87262 3.21092 0 1.60525-1.2751 2.9003-3.87263 2.9003H6.7859V1.5092zm8.15427 6.6861v-.04925c1.7796-.38242 2.9818-2.0357 2.9818-3.83382 0-3.18672-2.62144-4.1933-5.5077-4.1933h-7.2634V17.229h7.2634c5.5806 0 6.1576-3.23473 6.1576-4.8642 0-2.2294-1.41924-3.88142-3.6317-4.1695zM.21932 17.229h1.63546V.11893H.21932V17.229zM133.69287 4.84076h-.46177V2.5145h-.0134l-.91726 2.32627h-.29164l-.91684-2.32626h-.01382v2.3263h-.46177V2.0545h.71318l.83512 2.11668.82214-2.11664h.7061v2.7863zm-3.57305-2.41435h-.87618v2.4144h-.46177V2.4265h-.8762v-.372h2.21415v.372zm-14.3743 2.4144h3.24662v1.7247h.07333c.86487-1.414 2.3562-2.0607 3.79932-2.0607 3.6317 0 4.546 2.037 4.546 5.1043v7.6205h-3.4159V10.232c0-2.03695-.577-3.04353-2.1882-3.04353-1.8525 0-2.6453 1.0304-2.6453 3.5479v6.49323h-3.4159V4.8408zm-8.08136 10.1605c2.3323 0 3.0304-1.9651 3.0304-3.9545 0-1.9889-.6981-3.9778-3.0304-3.9778-2.30968 0-3.00652 1.989-3.00652 3.9779 0 1.9894.69684 3.9545 3.00652 3.9545zm0-10.4966c3.91958 0 6.44505 2.588 6.44505 6.5421 0 3.9307-2.5254 6.5171-6.445 6.5171-3.8969 0-6.4224-2.5863-6.4224-6.517 0-3.954 2.5255-6.5421 6.4225-6.5421zm-15.85138 8.6989c0 1.4617 1.2994 2.0846 2.62143 2.0846.9621 0 2.2377-.3824 2.2377-1.5814 0-1.0303-1.4431-1.414-3.8726-1.9163-1.9966-.4567-3.9439-1.103-3.9439-3.3073 0-3.1641 2.7417-3.9782 5.4109-3.9782 2.6935 0 5.219.911 5.4843 3.9545h-3.2479c-.0959-1.3189-1.1062-1.6771-2.3323-1.6771-.7701 0-1.9003.1194-1.9003 1.1498 0 1.2216 1.9485 1.389 3.8727 1.8457 1.9967.4543 3.9435 1.1736 3.9435 3.4736 0 3.2585-2.8611 4.3127-5.6757 4.3127-2.8854 0-5.7239-1.0779-5.8442-4.3603h3.2466zm-6.9022-8.3627h2.50032v2.2757h-2.50033v6.1346c0 1.1498.28787 1.4383 1.44187 1.4383.3855 0 .7467-.0242 1.05846-.0956v2.6594c-.577.0956-1.32203.1194-1.995.1194-2.11775 0-3.92082-.4538-3.92082-2.9474V7.1165h-2.06874V4.84076h2.06874V1.1255h3.4155v3.71527zm-17.8954 3.8096c.1919-3.1629 3.05428-4.1457 5.84375-4.1457 2.4777 0 5.45992.5511 5.45992 3.5228v6.4452c0 1.1273.12026 2.2532.43327 2.7567h-3.46367c-.11985-.3837-.2158-.7915-.2397-1.1978-1.0836 1.126-2.64698 1.5322-4.18607 1.5322-2.3805 0-4.233-1.1735-4.233-3.7123.04818-5.6328 8.41908-2.6135 8.27368-5.3923 0-1.4382-1.01027-1.677-2.21246-1.677-1.3233 0-2.1404.5256-2.26023 1.8683h-3.4155zm7.88818 2.5163c-.577.5031-1.7792.5269-2.83723.7194-1.05846.1912-2.02055.5737-2.02055 1.8207 0 1.2467.9864 1.5815 2.0922 1.5815 2.66962 0 2.76558-2.0845 2.76558-2.8523v-1.2692zM62.4436 17.2294h-3.75282l-2.9093-11.64633h-.04777L52.8709 17.2294h-3.8236L44.50126.11895h3.77585l2.7174 11.6476h.0478L54.0249.11893h3.53575l2.93486 11.7912h.0478L63.3567.11895h3.70504L62.4436 17.2294z"/>
    </g>
    <g transform="translate(0 26.847)">
      <path class="logo" fill="#FFF" d="M4.88447 4.29812c-.1479 0-.29457-.03925-.42363-.11356L.42477 1.8629c-.19653-.11274-.3369-.2952-.39557-.51354C-.02945 1.13144.0007.9035.11428.7077.26512.44675.54712.28476.85008.28476c.14792 0 .2946.03925.42322.11356L5.3098 2.72c.1961.11314.33646.29516.39513.5135.05866.21836.0289.4459-.08464.6417-.1513.26093-.4333.42292-.7359.42292" />
    </g>
    <path class="logo" fill="#FFF" d="M11.78757 24.26923c-.30254 0-.58454-.162-.7358-.42292l-2.33022-4.0212c-.23424-.4041-.0947-.9222.3105-1.1552.12906-.0743.27572-.1135.42363-.1135.30296 0 .58455.162.7358.4229l2.33022 4.0213c.11356.1958.14373.4238.08507.6417-.05867.2184-.19946.4008-.39557.5135-.12906.0743-.27572.1136-.42363.1136"/>
    <g transform="translate(20.113 15.158)">
      <path class="logo" fill="#FFF" d="M1.07925 6.5946c-.471 0-.8544-.3795-.8544-.84583V1.10543C.22485.6391.60825.26 1.07925.26c.47098 0 .8544.3791.8544.84543v4.64334c0 .46634-.38342.84584-.8544.84584" />
    </g>
    <path class="logo" fill="#FFF" d="M30.64132 24.26923c-.14792 0-.29458-.03925-.42364-.11356-.4052-.23296-.54474-.75107-.3105-1.1552l2.3302-4.02128c.15128-.261.43328-.423.73582-.423.14792 0 .29458.0392.42364.1135.4052.2329.54473.751.3105 1.1552l-2.3302 4.0213c-.15128.2609-.4333.4229-.73582.4229m6.90308 6.8762c-.30253 0-.58453-.162-.7358-.4229-.11356-.1958-.1433-.4238-.08464-.6417.05866-.2184.19903-.4004.39514-.5135l4.0365-2.3217c.12863-.0744.2753-.1136.4232-.1136.30296 0 .58497.162.73582.4229.11355.1958.14372.4237.08506.6417-.05867.2183-.19904.4008-.39556.5135l-4.03607 2.3217c-.12906.0743-.27572.1135-.42364.1135"/>
    <g transform="translate(5.866 24.342)">
      <path class="logo" fill="#FFF" d="M10.9097 3.56083c1.30947 0 2.67508.16908 4.05912.50307.25854-.19998.51918-.38993.7752-.56486.81166-.55527 1.61535-.99113 2.38846-1.29464-.76305-.16116-1.54705-.25593-2.33063-.2818-.15-.00502-.30212-.00753-.4513-.00753-1.58643 0-3.15108.27847-4.6512.82747-.75173.27513-1.47958.61622-2.16343 1.0141.4446-.0764.90803-.1311 1.37818-.16283.32684-.0217.66164-.0329.9956-.0329m6.11864 1.1181c.3721.1328.74713.2789 1.11545.4346 1.1062-.2379 2.1856-.3724 3.2084-.3995.1282-.0033.2573-.005.383-.005.4739 0 .9369.0242 1.3769.0718-.2678-.4692-.6118-.827-1.0233-1.0633-.4052-.2333-.8804-.3515-1.4117-.3515-.272 0-.5624.0313-.8641.0927-.8435.1712-1.8065.5933-2.7849 1.2204m3.7423 1.7568c1.0756.6325 2.0888 1.3485 3.0128 2.1292.0343-.7164.0046-1.3848-.0884-1.9868-.5972-.1181-1.255-.1778-1.9561-.1778-.1123 0-.2271.0012-.342.0046-.2041.005-.4149.0154-.6265.0309m4.577 3.5983c.7014.7335 1.3287 1.5055 1.8655 2.2954.1127-.3615.194-.7189.2422-1.0625.1412-1.0082-.0042-1.8937-.4324-2.6323-.3449-.5953-.8674-1.0825-1.5534-1.4483.0398.5937.0339 1.2321-.0185 1.8967-.0243.3085-.0591.6283-.1035.9511m-14.437-4.7824c-.2959 0-.593.0101-.8817.0293-1.4624.0982-2.7572.4384-3.8492 1.0112-1.0958.5749-1.9389 1.3627-2.5062 2.3422-.5678.979-.831 2.1008-.7828 3.3336.0339.8717.2229 1.7802.5611 2.7007.7748-1.1469 1.7523-2.2708 2.9063-3.34 1.374-1.2733 2.9483-2.4235 4.67885-3.4192.06244-.0359.12487-.0714.1873-.1065.68344-.8513 1.40123-1.6395 2.13244-2.3434-.83134-.1378-1.6543-.2079-2.44627-.2079m17.3896 8.9414c.2016.4121.3809.8296.5326 1.2408.0042-.7127-.049-1.4295-.1584-2.1321-.1081.2943-.2342.5941-.37413.8913M1.8633 15.2663c-.0042.7126.049 1.4299.1584 2.1325.1085-.2948.23464-.5945.3746-.8918-.202-.4125-.3809-.8296-.533-1.2408m2.4471 1.2324c.4048.7084.89128 1.4077 1.44523 2.0782.56946-2.2787 1.56926-4.6947 2.89213-6.9909-.3922.3173-.77353.6475-1.1339.9811-1.22564 1.1355-2.2238 2.3233-2.9663 3.5294-.08085.1319-.1609.2672-.23715.402m20.63-4.3753c-.5698 2.27863-1.5696 4.6947-2.8925 6.9913.3926-.3177.774-.64756 1.1343-.9815 1.2257-1.136 2.2238-2.32338 2.9663-3.5299.0809-.1315.1605-.2664.2372-.4012-.4052-.7089-.8913-1.4082-1.4452-2.0787M3.483 18.3711c-.1127.3619-.194.7189-.2422 1.0625-.1408 1.0082.0046 1.8937.4325 2.6323.3449.5949.8674 1.0821 1.5534 1.4478-.0402-.5936-.0339-1.2316.0185-1.8966.0239-.3081.0587-.6279.1031-.95106-.701-.7331-1.3283-1.5051-1.8651-2.295m3.679 1.71296c1.118 1.06753 2.3977 2.019 3.804 2.8281.572.329 1.162.6321 1.7536.90094.3726-.0914.753-.1962 1.1306-.3119 1.5106-.4625 3.0241-1.1067 4.4974-1.915.7853-1.002 1.52238-2.0954 2.1915-3.25012.9391-1.6207 1.6975-3.27855 2.254-4.92764.3235-.95852.5728-1.8983.7409-2.7926-1.118-1.0675-2.3977-2.01853-3.8039-2.82763-.572-.32897-1.1616-.63207-1.7532-.9009-.373.09143-.753.19622-1.1306.3119-1.5106.4622-3.02417 1.1068-4.49788 1.91543-.7853 1.0015-1.52235 2.0949-2.1915 3.2497-.93907 1.6207-1.6975 3.2785-2.2535 4.9276-.32396.95855-.57286 1.8983-.7413 2.7922m-.1609 4.0384c.5971.1181 1.2554.1778 1.95726.1778.1119 0 .2263-.00166.3407-.0046.2041-.0054.4144-.0158.626-.0309-1.07522-.6325-2.08885-1.3489-3.0124-2.1292-.03476.7164-.005 1.3844.0884 1.9869m10.3382 1.1176c.83138.1382 1.6543.2083 2.4463.2083.29627 0 .5929-.01.88207-.0292 1.46197-.0981 2.7572-.4384 3.84875-1.01117 1.0958-.5749 1.9393-1.3627 2.5066-2.3421.5674-.9794.8305-2.1008.7824-3.3336-.034-.8717-.22294-1.7802-.5611-2.7008-.7744 1.1469-1.75195 2.2708-2.90595 3.34-1.374 1.27336-2.9483 2.42355-4.6789 3.41885-.06247.0363-.1249.0718-.1877.1073-.6835.8512-1.4013 1.6394-2.1325 2.3425m-9.75555.68c.2678.46886.6118.82665 1.02285 1.06337.40562.23294.8804.3511 1.41212.3511.2715 0 .5623-.0309.8636-.09227.8439-.1716 1.80643-.5933 2.78485-1.2208-.37168-.1324-.7467-.2785-1.11504-.4342-1.1063.238-2.1857.3724-3.2085.3995-.1291.0033-.2586.005-.3847.005-.4731 0-.9357-.0242-1.3752-.0718m4.9797 2.5763c.76265.1611 1.54665.2559 2.33023.2818.15.005.3021.0075.4521.0075 1.586 0 3.1507-.2785 4.6508-.8275.7518-.2752 1.4792-.6162 2.1635-1.0141-.4446.0764-.9085.1311-1.3786.1628-.3268.0217-.6617.0329-.9956.0329-1.3095 0-2.6747-.1695-4.0587-.5031-.2586.1995-.5192.3895-.7752.5644-.8121.5557-1.6154.9911-2.3885 1.29502m2.7828 1.9806c-.1688 0-.3398-.0029-.5087-.00836-2.0314-.0672-4.0042-.53606-5.8634-1.39317-1.8592-.8571-3.4947-2.052-4.8611-3.5508-1.3195-1.4474-2.3331-3.1161-3.0128-4.95935-.6797-1.84358-.9915-3.769-.9261-5.7233.0674-2.024.5376-3.9896 1.3983-5.842.8602-1.8524 2.0591-3.4819 3.5638-4.8433C6.5892 2.8419 8.264 1.832 10.114 1.1548c1.6878-.6179 3.4494-.931 5.2357-.931.16845 0 .33983.0029.5087.00834 2.03102.0672 4.0038.53606 5.86302 1.39317 1.85965.8571 3.4951 2.0516 4.86156 3.5508 1.3195 1.4475 2.33314 3.1162 3.0128 4.9594.67966 1.8432.991 3.7691.92605 5.7234-.06746 2.0236-.53803 3.9891-1.3983 5.842-.86025 1.8524-2.0595 3.4819-3.56382 4.8433-1.4527 1.3147-3.1276 2.3246-4.978 3.0018-1.6878.6179-3.4494.931-5.2353.931" />
    </g>
  </g>
</svg>
